<svg height="512" viewBox="0 0 64 64" width="512" xmlns="http://www.w3.org/2000/svg"><g id="Concrete_mixer" data-name="Concrete mixer"><path d="m59 39h-14a2 2 0 0 1 -2-2v-8h-4v24h20z" fill="#ffb655"/><path d="m44 50a2 2 0 0 1 -2-2v-19h-3v24h20v-3z" fill="#ff9811"/><path d="m9.082 55.947a5.509 5.509 0 0 1 0-1.894c.007-.041.011-.083.019-.124a5.99 5.99 0 0 1 .248-.929h-4.349v2a2 2 0 0 0 2 2h2.349a5.99 5.99 0 0 1 -.248-.929c-.008-.041-.012-.083-.019-.124z" fill="#ff5023"/><path d="m9.082 55.947c.007.041.011.083.019.124-.007-.041-.013-.083-.019-.124z" fill="#ffb655"/><path d="m49 29h-6v8a2 2 0 0 0 2 2h14a10 10 0 0 0 -10-10z" fill="#d1d3d4"/><path d="m43.349 53h-22.7a5.905 5.905 0 0 1 0 4h22.7a5.905 5.905 0 0 1 0-4z" fill="#ff5023"/><path d="m54.651 53a5.905 5.905 0 0 1 0 4h4.349a2 2 0 0 0 2-2v-2z" fill="#ff5023"/><path d="m15 49a6 6 0 0 1 5.651 4h18.349v-6h-36v6h6.349a6 6 0 0 1 5.651-4z" fill="#ff7956"/><path d="m9.1 53.929c-.008.041-.012.083-.019.124.007-.041.013-.083.019-.124z" fill="#ffb655"/><path d="m53 45a2 2 0 0 0 2 2h4v-4h-4a2 2 0 0 0 -2 2z" fill="#d1e7f8"/><path d="m33.1 29.661-6.863-4.992a3.994 3.994 0 0 0 -2.389-.766l-15.84.145a2 2 0 0 0 -1.908 1.483l-2.6 9.7a2 2 0 0 0 .83 2.186l13.433 8.87a4 4 0 0 0 2.624.64l8.327-.881a6 6 0 0 0 5.164-4.414l1.49-5.562a6 6 0 0 0 -2.268-6.409z" fill="#57a4ff"/><path d="m24.389 44.923a4 4 0 0 1 -2.624-.64l-13.433-8.87a2 2 0 0 1 -.83-2.186l2.464-9.2-1.953.018a2 2 0 0 0 -1.913 1.486l-2.6 9.7a2 2 0 0 0 .83 2.186l13.433 8.87a4 4 0 0 0 2.624.64l8.327-.881a5.992 5.992 0 0 0 3.85-1.984z" fill="#2488ff"/><path d="m55 55a6.024 6.024 0 1 1 -.35-2 6.049 6.049 0 0 1 .35 2z" fill="#58595b"/><circle cx="49" cy="55" fill="#f1f2f2" r="2"/><g fill="#ffb655"><path d="m9 55a6.03 6.03 0 0 0 .082.947 5.912 5.912 0 0 1 -.082-.947z"/><path d="m9.082 54.053a6.03 6.03 0 0 0 -.082.947 5.912 5.912 0 0 1 .082-.947z"/><path d="m9.1 56.071a5.99 5.99 0 0 0 .249.929 5.628 5.628 0 0 1 -.249-.929z"/><path d="m9.35 53a5.99 5.99 0 0 0 -.248.929 5.628 5.628 0 0 1 .248-.929z"/></g><path d="m21 55a6 6 0 0 1 -11.65 2 5.79 5.79 0 0 1 -.25-.93c-.01-.04-.01-.08-.02-.12a5.681 5.681 0 0 1 0-1.9c.01-.04.01-.08.02-.12a5.79 5.79 0 0 1 .25-.93 6 6 0 0 1 11.65 2z" fill="#58595b"/><circle cx="15" cy="55" fill="#f1f2f2" r="2"/><path d="m49 58a3 3 0 1 1 3-3 3 3 0 0 1 -3 3zm0-4a1 1 0 1 0 1 1 1 1 0 0 0 -1-1z"/><path d="m15 58a3 3 0 1 1 3-3 3 3 0 0 1 -3 3zm0-4a1 1 0 1 0 1 1 1 1 0 0 0 -1-1z"/><path d="m46 44h-2a1 1 0 0 1 0-2h2a1 1 0 0 1 0 2z"/><path d="m21.81 37.449a.972.972 0 0 1 -.259-.035 1 1 0 0 1 -.707-1.225l.259-.965a1 1 0 0 1 1.931.517l-.259.966a1 1 0 0 1 -.965.742z"/><path d="m61 52h-1v-13a11.013 11.013 0 0 0 -11-11h-10a1 1 0 0 0 -1 1v17h-6.2a7.027 7.027 0 0 0 3.05-4.113l1.49-5.562a7.039 7.039 0 0 0 -2.643-7.472l-6.866-4.993a5.06 5.06 0 0 0 -2.988-.957l-15.843.145a3.011 3.011 0 0 0 -2.87 2.223l-2.6 9.7a3 3 0 0 0 1.245 3.28l.225.142v7.607h-1a1 1 0 0 0 -1 1v6a1 1 0 0 0 1 1h1v1a3 3 0 0 0 3 3h1.685a6.985 6.985 0 0 0 12.63 0h21.37a6.985 6.985 0 0 0 12.63 0h3.685a3 3 0 0 0 3-3v-2a1 1 0 0 0 -1-1zm-17-22h5a9.011 9.011 0 0 1 8.941 8h-1.941v-2a1 1 0 0 0 -2 0v2h-9a1 1 0 0 1 -1-1zm-34 12.354 5.522 3.646h-5.522zm-5.533-6.869 2.6-9.695a1 1 0 0 1 .957-.742l15.84-.145h.006l-1.73 6.456a1 1 0 0 0 .707 1.224.972.972 0 0 0 .259.035 1 1 0 0 0 .965-.742l1.694-6.321 6.753 4.914a5.031 5.031 0 0 1 1.889 5.337l-1.491 5.562a5.029 5.029 0 0 1 -4.3 3.678l-8.3.879 1.435-5.355a1 1 0 0 0 -1.932-.518l-1.451 5.418c-.013-.009-.028-.014-.042-.023l-13.443-8.868a1 1 0 0 1 -.416-1.094zm3.533 5.549v.966h-2v-2.287zm0 2.966v2h-2v-2zm.08 12h-1.08a1 1 0 0 1 -1-1v-1h2.08a6.29 6.29 0 0 0 0 2zm6.92 4a5 5 0 1 1 5-5 5.006 5.006 0 0 1 -5 5zm0-12a7 7 0 0 0 -6.315 4h-4.685v-4h34v4h-16.685a7 7 0 0 0 -6.315-4zm27.08 8h-20.16a6.29 6.29 0 0 0 0-2h20.16a6.29 6.29 0 0 0 0 2zm6.92 4a5 5 0 1 1 5-5 5.006 5.006 0 0 1 -5 5zm0-12a7 7 0 0 0 -6.315 4h-2.685v-22h2v7a3 3 0 0 0 3 3h13v2h-3a3 3 0 0 0 0 6h3v4h-2.685a7 7 0 0 0 -6.315-4zm9-4v2h-3a1 1 0 0 1 0-2zm2 11a1 1 0 0 1 -1 1h-3.08a6.29 6.29 0 0 0 0-2h4.08z"/></g></svg>