<svg height="512" viewBox="0 0 64 64" width="512" xmlns="http://www.w3.org/2000/svg"><g id="Project-4" data-name="Project"><g fill="#ff7956"><path d="m56.54 42a10.468 10.468 0 0 1 -.68 1.62l3.16 3.16-4.24 4.24-.78-.78-2.38-2.38a10.468 10.468 0 0 1 -1.62.68v4.46h-6v-4.46a10.468 10.468 0 0 1 -1.62-.68l-2.38 2.38v-4.24a4 4 0 0 0 -4-4h-2a4 4 0 0 0 4-4v-4a2.015 2.015 0 0 0 2-2 2.006 2.006 0 0 0 -2-2 5.485 5.485 0 0 0 -.22-1.58l1.44-1.44 3.16 3.16a10.468 10.468 0 0 1 1.62-.68v-4.46h6v4.46a10.468 10.468 0 0 1 1.62.68l3.16-3.16 4.24 4.24-3.16 3.16a10.468 10.468 0 0 1 .68 1.62h4.46v6z"/><path d="m58.36 20.06a1.994 1.994 0 0 1 .79 2.63l-.2.42a2.007 2.007 0 0 1 -2.79.84l-2.16-1.23-21.01-12.01a2 2 0 0 0 -1.98 0l-21.01 12.01-2.16 1.23a2.007 2.007 0 0 1 -2.79-.84l-.2-.42a1.994 1.994 0 0 1 .79-2.63l25.37-14.49a2 2 0 0 1 1.98 0l13 7.42 8.01 4.58z"/><path d="m55 57a2.006 2.006 0 0 1 2 2 2.015 2.015 0 0 1 -2 2h-46a2.006 2.006 0 0 1 -2-2 2.015 2.015 0 0 1 2-2z"/><path d="m54 3a2.006 2.006 0 0 1 2 2 2.015 2.015 0 0 1 -2 2h-8.01a2 2 0 0 1 -1.99-2 2.015 2.015 0 0 1 2-2z"/></g><path d="m54 50.24v6.76h-14v-6.76l2.38-2.38a10.468 10.468 0 0 0 1.62.68v4.46h6v-4.46a10.468 10.468 0 0 0 1.62-.68z" fill="#46f8ff"/><path d="m54 22.72v5.04l-2.38 2.38a10.468 10.468 0 0 0 -1.62-.68v-4.46h-6v4.46a10.468 10.468 0 0 0 -1.62.68l-3.16-3.16-1.44 1.44a5.845 5.845 0 0 0 -1.54-2.66 5.944 5.944 0 0 0 -4.24-1.76 6 6 0 0 0 -6 6h-16v-7.28l21.01-12.01a2 2 0 0 1 1.98 0z" fill="#46f8ff"/><path d="m54 7v10.57l-8.01-4.58v-5.99h.01z" fill="#fee9ab"/><circle cx="47" cy="39" fill="#fee9ab" r="6"/><path d="m40 50.24v6.76h-4v-15a4 4 0 0 1 4 4z" fill="#ffde55"/><path d="m38 30a2.006 2.006 0 0 1 2 2 2.015 2.015 0 0 1 -2 2h-12a2.006 2.006 0 0 1 -2-2 2.015 2.015 0 0 1 2-2z" fill="#ff9811"/><path d="m38 34v4a4 4 0 0 1 -4 4h-4a4 4 0 0 1 -4-4v-4z" fill="#ffc477"/><path d="m38 30h-6v-6a5.944 5.944 0 0 1 4.24 1.76 5.845 5.845 0 0 1 1.54 2.66 5.485 5.485 0 0 1 .22 1.58z" fill="#a78966"/><path d="m28 46h8v11h-8z" fill="#a78966"/><path d="m36 42v4h-8v-4h2 4z" fill="#ffde55"/><path d="m32 24v6h-6a6 6 0 0 1 6-6z" fill="#a78966"/><path d="m30 42h-2a4 4 0 0 0 -4 4v4h-21v-20h23a2.015 2.015 0 0 0 -2 2 2.006 2.006 0 0 0 2 2v4a4 4 0 0 0 4 4z" fill="#fee9ab"/><path d="m28 46v11h-4v-11a4 4 0 0 1 4-4z" fill="#ffde55"/><path d="m10 50h14v7h-14z" fill="#46f8ff"/><path d="m61 35h-3.758c-.054-.138-.113-.276-.174-.414l2.659-2.659a1 1 0 0 0 0-1.414l-4.24-4.24a.956.956 0 0 0 -.487-.241v-1.595l.668.382a3.009 3.009 0 0 0 1.491.394 2.975 2.975 0 0 0 .867-.128 3.005 3.005 0 0 0 1.813-1.528l.209-.417a3 3 0 0 0 -1.194-3.947l-3.854-2.202v-9.175a2.993 2.993 0 0 0 -1-5.816h-8a2.993 2.993 0 0 0 -1.015 5.811v3.458l-11.497-6.569a3.008 3.008 0 0 0 -2.976 0l-25.366 14.493a3 3 0 0 0 -1.194 3.947l.208.416a3 3 0 0 0 4.172 1.263l.668-.382v4.563h-6a1 1 0 0 0 -1 1v20a1 1 0 0 0 1 1h6v5a3 3 0 0 0 0 6h46a3 3 0 0 0 0-6v-4.024a.985.985 0 0 0 .487-.249l4.24-4.24a1 1 0 0 0 0-1.414l-2.659-2.659c.061-.138.12-.276.174-.414h3.758a1 1 0 0 0 1-1v-6a1 1 0 0 0 -1-1zm-15-31h8a1 1 0 0 1 0 2h-8a1 1 0 0 1 0-2zm.985 4h6.015v7.848l-6.015-3.437zm-39.646 15.083a1 1 0 0 1 -1.39-.422l-.208-.416a1 1 0 0 1 .4-1.315l25.359-14.495a1 1 0 0 1 .992 0l25.365 14.5a1 1 0 0 1 .4 1.315l-.209.417a1 1 0 0 1 -1.39.421l-23.169-13.246a3.009 3.009 0 0 0 -2.977 0zm3.661.217 20.5-11.722a1 1 0 0 1 .992 0l20.508 11.716v4.052l-1.586 1.586c-.138-.061-.276-.12-.414-.174v-3.758a1 1 0 0 0 -1-1h-6a1 1 0 0 0 -1 1v3.758c-.138.054-.276.113-.414.174l-2.659-2.659a1 1 0 0 0 -1.414 0l-.372.372a6.993 6.993 0 0 0 -13.061 2.355h-14.08zm28 32.7h-2v-12.816a3 3 0 0 1 2 2.816zm-4-13v2h-6v-2zm-8 .184v12.816h-2v-10a3 3 0 0 1 2-2.816zm2 3.816h6v9h-6zm5-6h-4a3 3 0 0 1 -3-3v-3h10v3a3 3 0 0 1 -3 3zm-1-15.9a5.016 5.016 0 0 1 3.9 3.9h-3.9zm-2 3.9h-3.9a5.016 5.016 0 0 1 3.9-3.9zm7 4h-12a1 1 0 0 1 0-2h12a1 1 0 0 1 0 2zm-34-2h19.184a2.947 2.947 0 0 0 1.816 3.816v3.184a4.964 4.964 0 0 0 1.29 3.321 4.993 4.993 0 0 0 -3.29 4.679v3h-19zm7 20h12v5h-12zm45 8a1 1 0 0 1 -1 1h-46a1 1 0 0 1 0-2h46a1 1 0 0 1 1 1zm-15-3v-5.346l1.586-1.586c.138.061.276.12.414.174v3.758a1 1 0 0 0 1 1h6a1 1 0 0 0 1-1v-3.758c.138-.054.276-.113.414-.174l1.586 1.586v5.346zm19-15h-3.46a1 1 0 0 0 -.952.694 9.461 9.461 0 0 1 -.616 1.465 1 1 0 0 0 .181 1.168l2.453 2.453-2.826 2.826-2.453-2.453a1 1 0 0 0 -1.168-.181 9.461 9.461 0 0 1 -1.465.616 1 1 0 0 0 -.694.952v3.46h-4v-3.46a1 1 0 0 0 -.694-.952 9.461 9.461 0 0 1 -1.465-.616 1 1 0 0 0 -1.168.181l-.673.673v-1.826a4.993 4.993 0 0 0 -3.29-4.679 4.964 4.964 0 0 0 1.29-3.321v-3.184a2.982 2.982 0 0 0 -.054-5.649c-.018-.145-.04-.29-.066-.433l.34-.34 2.453 2.453a1 1 0 0 0 1.168.181 9.461 9.461 0 0 1 1.465-.616 1 1 0 0 0 .694-.952v-3.46h4v3.46a1 1 0 0 0 .694.952 9.461 9.461 0 0 1 1.465.616 1 1 0 0 0 1.168-.181l2.453-2.453 2.826 2.826-2.453 2.453a1 1 0 0 0 -.181 1.168 9.461 9.461 0 0 1 .616 1.465 1 1 0 0 0 .952.694h3.46z"/><path d="m47 32a7 7 0 1 0 7 7 7.008 7.008 0 0 0 -7-7zm0 12a5 5 0 1 1 5-5 5.006 5.006 0 0 1 -5 5z"/><path d="m6 33h4v2h-4z"/><path d="m12 33h8v2h-8z"/><path d="m6 39h14v2h-14z"/><path d="m6 45h14v2h-14z"/></g></svg>