<svg height="150" viewBox="0 0 57 60" width="350" xmlns="http://www.w3.org/2000/svg"><g id="Page-1" fill="none" fill-rule="evenodd"><g id="035---Track-Intersection" fill="rgb(0,0,0)" fill-rule="nonzero" transform="translate(0 -1)"><path id="Shape" d="m3.24 21.11c-.83553521-.063731-1.6598347.2236074-2.27469844.7929257-.61486375.5693183-.96466729 1.3691123-.96530156 2.2070743v1c.00614047 1.559303 1.20396042 2.8548421 2.758 2.983.46666667.036.92733333.0836667 1.382.143l-.059 1.73c-.00917549.2650907.08734485.5229667.26832274.716885.18097789.1939182.43158477.30799.69667726.317115h.035c.53927486.0003118.98166474-.4270368 1-.966l.05-1.463c2.29148839.4613553 4.5163775 1.2071282 6.623 2.22l-.69 1.861c-.0924776.2486376-.0823718.5238318.0280932.7650168.110465.2411851.3122361.4285947.5609068.5209832.2487654.0924267.5240681.0821804.7652749-.0284821.2412069-.1106626.4285343-.3126649.5207251-.5615179l.6-1.619c2.0951349 1.1991411 4.0307303 2.6576413 5.761 4.341l-1.073 1.29c-.3534622.424707-.295707 1.0555378.129 1.409s1.0555378.295707 1.409-.129l.928-1.116c4.1130813 4.5716114 6.6361326 10.351616 7.192 16.476h-1.885c-.5522847 0-1 .4477153-1 1s.4477153 1 1 1h1.988c0 .167.012.332.012.5v1.5c0 1.6568542 1.3431458 3 3 3h1c1.6568542 0 3-1.3431458 3-3v-1.5c0-.168-.01-.333-.012-.5h11c0 .167.012.332.012.5v1.5c0 1.6568542 1.3431458 3 3 3h1c1.6568542 0 3-1.3431458 3-3v-1.5c0-.168-.011-.333-.012-.5h2.012c.5522847 0 1-.4477153 1-1s-.4477153-1-1-1h-2v-10h2c.5522847 0 1-.4477153 1-1s-.4477153-1-1-1h-2v-10h2c.5522847 0 1-.4477153 1-1s-.4477153-1-1-1h-2v-10h2c.5522847 0 1-.4477153 1-1s-.4477153-1-1-1h-2v-10h2c.5522847 0 1-.44771525 1-1s-.4477153-1-1-1h-2v-2c0-1.65685425-1.3431458-3-3-3h-1c-1.6568542 0-3 1.34314575-3 3v2h-11v-2c0-1.65685425-1.3431458-3-3-3h-1c-1.6568542 0-3 1.34314575-3 3v2h-2c-.5522847 0-1 .44771525-1 1s.4477153 1 1 1h2v3.205c-1.8342193-1.1588901-3.7377933-2.20418594-5.7-3.13l.64-1.728c.1239712-.33511513.0597435-.71091211-.1684892-.98583185-.2282326-.27491975-.5857962-.4071954-.938-.34700001-.3522038.0601954-.6455396.30371673-.7695108.63883186l-.6 1.611c-4.6310554-1.96514321-9.5173521-3.26373388-14.513-3.857l.049-1.372c.01932996-.55228474-.41271526-1.01567002-.965-1.03499999-.55228474-.01932996-1.01567003.41271525-1.035.96499999l-.043 1.235c-.594-.048-1.188-.1-1.788-.131-.82759801-.03769544-1.63511392.26178543-2.238.83-.59775859.56422618-.93485235 1.35101966-.931 2.173v1c-.00636617 1.59316043 1.23992177 2.91032522 2.831 2.992.637.032 1.268.084 1.9.141l-.364 11.019c-.375-.041-.749-.085-1.127-.114zm30.76 36.89c0 .5522847-.4477153 1-1 1h-1c-.5522847 0-1-.4477153-1-1v-1.5c0-.4933333-.012-.9833333-.036-1.47 0-.011.006-.02.006-.03s-.011-.04-.012-.061c-.3897192-7.2649432-3.3648863-14.1509581-8.388-19.414-.0644091-.1686079-.1947753-.3036687-.361-.374-2.2455299-2.2889351-4.8355532-4.2122197-7.676-5.7-.0542109-.0425678-.112889-.0791158-.175-.109-.015 0-.03 0-.045-.007-3.5472689-1.8242774-7.42227047-2.9239905-11.399-3.235-.51462955-.0444124-.91074741-.4734679-.914-.99v-1c.00055004-.5571894.45181146-1.008898 1.009-1.01h.079c17.4162575 1.4121019 30.8496495 15.9267012 30.912 33.4zm-5-38.26v5.9l-4.212 5.053c-2.3367703-2.2059186-4.9604264-4.0865419-7.8-5.591l3.865-10.421c2.8835352 1.399647 5.6138577 3.0950811 8.147 5.059zm6.9 34.26c-.5965266-8.1997878-4.0215513-15.9380815-9.69-21.893l2.79-3.346v2.239c0 .5522847.4477153 1 1 1s1-.4477153 1-1v-9.626c1.0426667.906 2.0426667 1.8576667 3 2.855v14.771c0 .5522847.4477153 1 1 1s1-.4477153 1-1v-12.551c3.8728279 4.5739831 6.822845 9.8549449 8.687 15.551h-8.687c-.5522847 0-1 .4477153-1 1s.4477153 1 1 1h9.292c.9084585 3.2637539 1.4577155 6.6169712 1.638 10zm14.1-51h1c.5522847 0 1 .44771525 1 1v37.992c-.7774051-2.7860503-1.7807307-5.5040594-3-8.127v-29.865c0-.55228475.4477153-1 1-1zm-3 27.011c-2.0578372-3.6114772-4.5291402-6.9710935-7.364-10.011h7.364zm0-22.011v10h-9.322c-.548-.529-1.108-1.043-1.678-1.549v-8.451zm-16-4c0-.55228475.4477153-1 1-1h1c.5522847 0 1 .44771525 1 1v10.76c-.971-.78-1.974-1.52-3-2.232zm-29 3.073v-1c-.00097136-.2726021.11130223-.53336656.31-.72.19019593-.18284858.44417008-.2843665.708-.283h.053c6.39854622.30828238 12.6829612 1.81078972 18.529 4.43.0276428.02009977.0567206.03814805.087.054.02.007.041.005.061.011 18.4361256 8.3349366 30.2748399 26.7023192 30.252 46.935v1.5c0 .5522847-.4477153 1-1 1h-1c-.5522847 0-1-.4477153-1-1v-1.5c.0307862-25.85308-20.2486878-47.1726963-46.071-48.434-.52512078-.02987794-.93412114-.46705486-.929-.993zm4.723 3.357c4.2415374.5623549 8.3844364 1.7109914 12.31 3.413l-3.845 10.367c-2.810265-1.2896476-5.7791439-2.2009243-8.829-2.71z"/></g></g></svg>