<svg id="Layer_5" enable-background="new 0 0 64 64" height="150" viewBox="0 0 57 60" width="250" xmlns="http://www.w3.org/2000/svg"><g><path d="m60 6h-5v-2c0-.551-.449-1-1-1h-18c-.551 0-1 .449-1 1v6c0 .551.449 1 1 1h18c.551 0 1-.449 1-1v-2h5c.551 0 1 .449 1 1v5.491c0 .444-.298.84-.726.962l-11.099 3.171c-1.28.366-2.175 1.553-2.175 2.885v5.491h-1v8h4v-8h-1v-5.491c0-.444.298-.84.726-.962l11.099-3.171c1.28-.366 2.175-1.553 2.175-2.885v-5.491c0-1.654-1.346-3-3-3z"/><path d="m39.586 47-10-10h-5.172l10 10z"/><path d="m4 11h.764c.381 0 .724-.212.894-.553l.724-1.447h4.618v3c0 .551.449 1 1 1h6c.551 0 1-.449 1-1v-1.81c0-1.759 1.431-3.19 3.19-3.19.761 0 1.499.273 2.076.768l4.732 4.056c-.094-4.882-4.094-8.824-8.998-8.824h-8.764c-.381 0-.724.212-.894.553l-.724 1.447h-3.236l-.724-1.447c-.17-.341-.513-.553-.894-.553h-.764c-.551 0-1 .449-1 1v6c0 .551.449 1 1 1z"/><path d="m13 15h4v20h-4z"/><path d="m61 45.586v-8.586h-8.586z"/><path d="m4.414 37 10 10h5.172l-10-10z"/><path d="m31.586 47-10-10h-9.172l10 10z"/><path d="m7 49h4v12h-4z"/><path d="m32.414 37 10 10h9.172l-10-10z"/><path d="m53 49h4v12h-4z"/><path d="m44.414 37 10 10h5.172l-10-10z"/><path d="m3 47h8.586l-8.586-8.586z"/><path d="m13 55h38v2h-38z"/></g></svg>