<?xml version="1.0" standalone="no"?>
<!DOCTYPE svg PUBLIC "-//W3C//DTD SVG 20010904//EN"
 "http://www.w3.org/TR/2001/REC-SVG-20010904/DTD/svg10.dtd">
<svg version="1.0" xmlns="http://www.w3.org/2000/svg"
 width="1280.000000pt" height="831.000000pt" viewBox="0 0 1280.000000 831.000000"
 preserveAspectRatio="xMidYMid meet">
<metadata>
Created by potrace 1.15, written by Peter Selinger 2001-2017
</metadata>
<g transform="translate(0.000000,831.000000) scale(0.100000,-0.100000)"
fill="#000000" stroke="none">
<path d="M1248 8277 c-16 -24 -18 -64 -18 -466 0 -431 0 -440 -20 -446 -19 -6
-20 -15 -20 -316 0 -170 2 -309 5 -309 3 0 48 14 100 30 l95 31 0 62 c0 34 -4
112 -9 172 -6 61 -13 168 -17 238 l-6 128 -39 -6 -39 -7 -1 414 c0 227 -4 433
-7 458 l-7 44 -17 -27z"/>
<path d="M4440 8001 c-107 -32 -355 -104 -550 -160 -195 -56 -385 -111 -422
-122 l-68 -20 0 -151 0 -151 148 7 c171 7 474 23 582 30 124 9 42 -6 -567
-100 l-573 -88 0 -102 0 -102 -90 -13 -90 -12 0 -90 0 -90 38 6 c20 3 61 9 90
13 l52 7 0 -36 c0 -20 -4 -38 -9 -41 -5 -3 -43 -11 -85 -17 l-76 -11 0 -90 0
-90 33 6 c17 3 56 8 85 12 l52 7 0 -56 c0 -62 5 -59 -107 -72 l-53 -7 0 -90 0
-90 40 6 c22 3 58 9 80 12 l40 6 0 -40 c0 -45 1 -44 -107 -57 l-53 -7 0 -90 0
-90 33 5 c17 3 53 9 80 13 l47 6 0 -40 c0 -46 10 -41 -120 -59 l-55 -8 -3 -89
-3 -89 53 7 c29 4 70 10 91 13 l37 6 0 -41 c0 -44 3 -43 -117 -58 l-53 -7 0
-89 0 -90 38 6 c20 3 58 8 85 12 l47 6 0 -55 c0 -63 1 -62 -93 -72 l-67 -7 0
-90 0 -90 48 6 c26 4 62 10 80 13 32 5 32 5 32 -36 0 -45 5 -42 -100 -58 l-55
-8 -3 -89 -3 -88 48 6 c26 4 63 10 81 13 32 5 32 5 32 -36 0 -22 -1 -41 -2
-42 -2 0 -41 -6 -88 -12 l-85 -12 -3 -89 -3 -89 63 7 c35 4 75 10 91 13 26 5
27 4 27 -35 0 -45 -2 -46 -107 -58 l-63 -7 0 -90 0 -90 53 7 c28 4 67 9 85 13
l33 5 -3 -58 -3 -59 -75 -10 -75 -10 -3 -88 -3 -89 68 7 c37 4 73 8 78 9 6 0
10 -17 10 -39 l0 -40 -75 -10 -75 -10 -3 -89 -3 -88 58 7 c106 12 98 14 98
-30 l0 -40 -65 -8 c-118 -13 -110 -5 -110 -103 l0 -87 68 7 c37 4 76 8 87 9
17 2 20 -4 20 -38 l0 -40 -82 -9 -83 -9 0 -90 0 -89 63 6 c34 4 71 8 82 9 18
2 20 -4 20 -53 l0 -55 -75 -10 -75 -10 -3 -88 -3 -87 28 1 c15 0 50 4 76 8 38
6 50 5 54 -6 8 -21 0 -24 -79 -31 l-73 -7 -3 -89 -3 -89 81 7 81 7 -3 -220
c-2 -122 -3 -221 -3 -222 0 0 376 -22 835 -49 l836 -48 676 47 c373 26 680 50
684 53 3 4 1 298 -5 655 -15 841 -28 1619 -41 2378 -23 1341 -30 1688 -34
1693 -5 4 -507 129 -898 223 -76 18 -136 35 -134 37 2 2 84 -4 182 -12 98 -9
196 -16 216 -16 l38 0 0 189 0 188 -132 56 c-397 165 -549 227 -560 226 -7 -1
-101 -27 -208 -58z"/>
<path d="M8247 6695 c-4 -104 -16 -388 -27 -630 -11 -242 -24 -541 -30 -665
-5 -124 -13 -281 -16 -350 l-7 -126 73 -32 c40 -18 74 -31 75 -30 1 2 9 17 18
33 13 27 11 118 -25 950 -21 506 -42 947 -46 980 -6 48 -9 21 -15 -130z"/>
<path d="M1357 6719 c-84 -40 -153 -67 -160 -63 -6 4 -42 32 -79 61 -37 29
-72 53 -77 53 -26 0 -5 -25 75 -88 l87 -69 158 76 c88 41 159 81 159 88 0 7
-3 13 -7 13 -5 0 -74 -32 -156 -71z"/>
<path d="M1505 6504 c-121 -58 -257 -123 -301 -144 l-82 -38 -167 130 c-156
123 -167 129 -180 112 -8 -11 -15 -22 -15 -26 0 -9 345 -278 358 -278 5 0 137
61 293 136 156 75 299 142 316 150 30 13 32 16 21 39 -6 14 -14 25 -17 25 -3
-1 -105 -48 -226 -106z"/>
<path d="M11627 6593 c-4 -3 -7 -28 -7 -55 l0 -48 -150 0 -150 0 0 50 0 50
-370 0 -370 0 0 -51 0 -50 -90 3 -90 3 0 -2462 0 -2463 1200 0 1200 0 0 2460
0 2460 -185 0 -185 0 0 55 0 55 -398 0 c-219 0 -402 -3 -405 -7z"/>
<path d="M1864 6381 c-13 -11 -771 -371 -782 -371 -5 0 -88 61 -183 136 -96
76 -191 150 -212 167 l-39 30 -26 -26 c-16 -17 -23 -30 -17 -36 20 -18 434
-340 451 -351 16 -10 84 19 434 186 228 109 417 199 419 201 5 3 -20 62 -29
68 -4 2 -11 1 -16 -4z"/>
<path d="M1499 5928 l-437 -210 -237 186 -238 187 -23 -22 c-13 -13 -24 -28
-24 -35 0 -13 498 -408 515 -407 8 0 915 430 923 438 5 4 -31 75 -37 74 -3 0
-202 -95 -442 -211z"/>
<path d="M400 5913 l0 -80 127 -99 c70 -54 131 -100 135 -102 4 -2 8 32 8 75
l-1 78 -126 100 c-69 55 -130 102 -135 103 -4 2 -8 -32 -8 -75z"/>
<path d="M1845 5859 c-99 -55 -184 -104 -188 -108 -4 -4 -7 -42 -5 -83 l3 -75
185 101 185 101 5 83 c3 45 3 82 0 82 -3 0 -86 -46 -185 -101z"/>
<path d="M400 5647 l1 -82 96 -75 c53 -41 114 -88 135 -103 l38 -29 0 79 0 79
-135 107 -135 107 0 -83z"/>
<path d="M760 5633 l0 -80 135 -106 c74 -59 136 -107 138 -107 1 0 0 37 -1 82
l-4 83 -114 90 c-173 135 -154 131 -154 38z"/>
<path d="M1828 5583 l-188 -105 0 -80 0 -80 78 42 c42 24 130 72 195 107 l117
64 0 80 c0 43 -3 79 -7 78 -5 -1 -92 -48 -195 -106z"/>
<path d="M1310 5566 l-185 -103 -3 -83 -3 -83 23 15 c13 8 101 57 196 108
l172 94 0 78 c0 43 -3 78 -7 78 -5 0 -91 -47 -193 -104z"/>
<path d="M770 5358 l1 -83 132 -102 132 -102 3 77 c3 74 2 78 -25 100 -15 12
-76 61 -135 107 l-108 85 0 -82z"/>
<path d="M1303 5296 l-182 -101 -1 -77 c0 -43 3 -78 8 -78 4 0 90 47 192 103
l185 102 3 78 c2 58 0 77 -10 76 -7 -1 -95 -47 -195 -103z"/>
<path d="M330 5297 l0 -84 83 -65 c45 -35 112 -88 150 -117 l67 -53 0 89 0 88
-140 110 c-77 61 -145 112 -150 113 -6 2 -10 -30 -10 -81z"/>
<path d="M1913 5227 l-202 -112 -1 -88 c0 -49 4 -87 8 -85 4 2 101 54 215 116
l207 114 0 84 c0 61 -3 84 -12 84 -7 -1 -104 -51 -215 -113z"/>
<path d="M340 5001 l0 -90 136 -106 c74 -58 142 -109 150 -112 11 -4 14 9 14
74 0 93 12 77 -177 227 l-123 96 0 -89z"/>
<path d="M740 4982 l0 -90 136 -107 c75 -59 143 -109 150 -112 11 -4 14 12 14
78 l-1 84 -101 80 c-56 44 -124 97 -150 118 l-48 39 0 -90z"/>
<path d="M1920 4935 l-205 -114 -5 -86 c-3 -48 -3 -88 -2 -90 2 -2 25 9 50 24
26 15 120 67 210 115 l162 88 0 89 c0 49 -1 89 -2 89 -2 0 -95 -52 -208 -115z"/>
<path d="M1338 4912 l-208 -117 0 -88 0 -87 83 45 c45 25 142 78 215 117 l132
72 0 88 c0 48 -3 88 -7 87 -5 -1 -101 -53 -215 -117z"/>
<path d="M8465 4925 l-129 -83 -51 19 c-27 10 -102 39 -165 63 -109 42 -115
43 -124 25 -5 -11 -7 -21 -5 -22 8 -6 340 -127 349 -127 8 0 256 154 273 169
8 8 -1 41 -12 40 -3 0 -64 -38 -136 -84z"/>
<path d="M8569 4794 c-183 -91 -279 -134 -293 -130 -12 3 -135 54 -274 114
-236 102 -253 108 -263 91 -8 -15 -6 -21 8 -26 10 -3 137 -57 282 -119 l263
-113 289 144 c221 111 287 148 283 160 -4 8 -10 15 -14 15 -5 0 -131 -61 -281
-136z"/>
<path d="M8675 4639 c-209 -115 -385 -209 -390 -209 -6 0 -199 72 -430 159
-231 88 -420 159 -421 158 -1 -1 -4 -10 -6 -20 -2 -16 60 -43 429 -183 l432
-164 388 211 c213 117 391 215 396 218 4 4 1 14 -5 23 -12 14 -58 -9 -393
-193z"/>
<path d="M342 4739 l3 -93 144 -113 c80 -62 146 -113 148 -113 2 0 3 38 3 85
l0 84 -150 121 -151 121 3 -92z"/>
<path d="M1915 4672 l-210 -117 -3 -88 c-2 -49 1 -87 6 -85 5 1 102 54 215
116 l207 114 0 89 c0 49 -1 89 -2 89 -2 -1 -97 -54 -213 -118z"/>
<path d="M741 4683 l0 -88 136 -105 c74 -58 141 -109 149 -113 12 -7 14 7 14
77 l0 85 -145 115 c-80 64 -147 116 -150 116 -3 0 -5 -39 -4 -87z"/>
<path d="M1335 4617 l-200 -113 -3 -87 c-1 -48 -1 -87 2 -87 2 0 98 51 213
114 l208 115 3 85 c2 65 0 86 -10 85 -7 0 -103 -51 -213 -112z"/>
<path d="M8806 4434 c-352 -205 -495 -284 -510 -280 -12 3 -300 116 -641 250
l-620 244 -22 -46 c-12 -26 -22 -54 -22 -62 -1 -11 188 -89 657 -272 361 -142
662 -259 667 -260 8 -2 932 526 1034 591 11 7 8 19 -18 65 -18 31 -33 56 -34
55 -1 0 -222 -129 -491 -285z"/>
<path d="M330 4483 l1 -88 149 -117 150 -117 0 88 0 89 -137 109 c-76 60 -144
112 -150 116 -10 6 -13 -12 -13 -80z"/>
<path d="M1918 4413 l-208 -116 0 -88 0 -88 68 37 c37 20 134 73 215 117 l147
80 0 88 c0 48 -3 87 -7 86 -5 0 -101 -53 -215 -116z"/>
<path d="M740 4423 l1 -88 141 -110 c78 -60 145 -111 150 -113 4 -2 8 35 8 81
l0 86 -137 108 c-76 60 -144 113 -150 117 -10 5 -13 -13 -13 -81z"/>
<path d="M9283 4349 l-223 -152 0 -114 c0 -89 3 -113 13 -107 62 37 430 290
433 299 3 6 3 60 2 119 l-3 107 -222 -152z"/>
<path d="M1340 4357 l-205 -113 -3 -87 c-1 -48 0 -87 3 -87 3 0 98 50 210 112
l204 112 3 88 c2 48 1 88 -2 88 -3 0 -98 -51 -210 -113z"/>
<path d="M6762 4334 l3 -115 317 -150 c175 -82 322 -149 329 -149 7 0 9 33 5
113 l-5 112 -318 152 c-175 84 -322 153 -326 153 -4 0 -6 -52 -5 -116z"/>
<path d="M330 4224 l0 -89 150 -117 150 -117 0 88 0 88 -137 108 c-76 60 -144
113 -150 118 -10 7 -13 -10 -13 -79z"/>
<path d="M1948 4128 l-218 -122 0 -88 c0 -48 3 -88 8 -88 4 0 104 53 222 118
l215 119 3 91 c1 51 -1 92 -5 92 -4 -1 -106 -56 -225 -122z"/>
<path d="M722 4139 l3 -93 125 -98 c69 -55 137 -108 153 -119 l27 -20 -1 93 0
93 -146 115 c-81 63 -150 117 -155 118 -5 2 -7 -38 -6 -89z"/>
<path d="M1355 4076 l-220 -122 -3 -93 c-1 -51 1 -91 5 -88 4 2 106 57 226
122 l217 119 0 93 c0 51 -1 93 -2 93 -2 -1 -102 -56 -223 -124z"/>
<path d="M8670 3936 l-225 -153 -3 -117 -3 -116 230 152 230 153 1 118 c0 64
-1 117 -3 117 -1 0 -103 -69 -227 -154z"/>
<path d="M9283 3919 l-223 -152 0 -114 c0 -89 3 -113 13 -107 62 37 430 290
433 299 3 6 3 60 2 119 l-3 107 -222 -152z"/>
<path d="M7640 3927 c0 -80 4 -117 13 -124 13 -10 634 -303 642 -303 3 0 5 51
5 113 l0 113 -321 155 c-177 85 -326 156 -330 157 -5 2 -9 -48 -9 -111z"/>
<path d="M6762 3904 l3 -115 315 -149 c173 -82 321 -149 328 -150 11 0 12 23
8 113 l-5 112 -318 152 c-175 84 -322 153 -326 153 -4 0 -6 -52 -5 -116z"/>
<path d="M301 3888 l0 -93 116 -90 c64 -49 134 -103 155 -118 l38 -29 0 91 0
91 -142 113 c-79 62 -149 116 -155 121 -10 5 -13 -14 -12 -86z"/>
<path d="M720 3869 l1 -94 141 -110 c78 -60 147 -114 155 -118 10 -6 13 9 13
82 l0 90 -142 112 c-79 62 -149 117 -155 122 -10 7 -13 -11 -13 -84z"/>
<path d="M1950 3821 l-215 -119 -3 -92 c-2 -54 1 -91 7 -88 5 1 104 55 220
118 l211 115 0 93 c0 50 -1 92 -3 92 -1 0 -99 -53 -217 -119z"/>
<path d="M1348 3799 l-218 -120 0 -91 c0 -68 3 -89 13 -85 6 2 107 56 222 120
l210 115 3 91 c1 50 -1 91 -5 91 -4 0 -106 -54 -225 -121z"/>
<path d="M300 3618 l0 -93 147 -115 c81 -63 151 -116 155 -118 4 -2 8 36 8 85
l0 90 -137 109 c-75 60 -145 115 -155 122 -17 12 -18 8 -18 -80z"/>
<path d="M1948 3548 l-218 -122 0 -92 0 -92 220 121 220 121 0 93 c0 51 -1 93
-2 93 -2 -1 -101 -56 -220 -122z"/>
<path d="M8668 3505 l-228 -156 0 -115 0 -114 225 150 c124 83 228 157 231
164 3 7 3 61 2 120 l-3 107 -227 -156z"/>
<path d="M722 3559 l3 -93 125 -98 c69 -55 137 -108 153 -119 l27 -20 -1 93 0
93 -146 115 c-81 63 -150 117 -155 118 -5 2 -7 -38 -6 -89z"/>
<path d="M1345 3492 l-210 -117 -5 -93 c-3 -51 -3 -92 0 -92 3 0 102 53 220
118 l215 117 3 93 c1 50 -1 92 -5 91 -4 0 -102 -53 -218 -117z"/>
<path d="M7640 3496 c0 -79 4 -116 13 -123 13 -10 634 -303 642 -303 3 0 5 49
5 109 0 75 -4 112 -12 119 -11 9 -637 312 -645 312 -2 0 -3 -51 -3 -114z"/>
<path d="M9278 3458 l-218 -149 0 -115 c0 -90 3 -114 13 -108 6 4 108 72 225
152 l212 143 0 115 c0 63 -3 114 -7 113 -5 0 -106 -68 -225 -151z"/>
<path d="M6760 3446 l0 -113 321 -152 c177 -83 325 -151 331 -151 6 0 7 44 4
113 l-5 112 -313 152 c-172 83 -319 152 -325 152 -10 1 -13 -28 -13 -113z"/>
<path d="M292 3329 l3 -93 150 -118 c83 -65 153 -118 158 -118 4 0 7 39 7 88
l-1 87 -151 120 c-84 66 -156 122 -160 123 -5 2 -7 -38 -6 -89z"/>
<path d="M2078 3247 l-257 -142 -1 -108 c0 -60 3 -106 8 -104 4 2 121 66 260
142 l252 137 0 109 c0 60 -1 109 -2 108 -2 0 -119 -64 -260 -142z"/>
<path d="M720 3289 l1 -94 141 -110 c78 -60 147 -114 155 -118 10 -6 13 9 13
82 l0 90 -142 112 c-79 62 -149 117 -155 122 -10 7 -13 -11 -13 -84z"/>
<path d="M1363 3197 l-253 -141 0 -103 c0 -57 3 -103 7 -103 4 0 121 62 260
138 l253 137 0 108 c0 59 -3 107 -7 106 -5 0 -122 -64 -260 -142z"/>
<path d="M8665 3046 l-220 -152 -3 -118 -3 -118 228 154 228 155 3 116 c1 64
-1 117 -5 116 -4 -1 -107 -69 -228 -153z"/>
<path d="M9283 3047 l-222 -152 -1 -116 0 -116 225 150 225 151 0 118 c0 65
-1 118 -2 117 -2 0 -103 -69 -225 -152z"/>
<path d="M6762 3033 l3 -118 320 -152 c176 -83 324 -152 329 -152 10 -1 -1
220 -12 231 -7 7 -632 308 -639 308 -2 0 -2 -53 -1 -117z"/>
<path d="M7642 3033 l3 -117 324 -153 c177 -84 325 -153 327 -153 3 0 3 52 2
115 l-3 115 -324 155 c-178 85 -326 155 -328 155 -2 0 -2 -53 -1 -117z"/>
<path d="M150 2963 l1 -108 87 -66 c48 -37 129 -99 180 -138 l92 -72 0 108 -1
108 -171 135 c-95 74 -175 137 -180 138 -4 2 -8 -45 -8 -105z"/>
<path d="M640 2943 l0 -109 172 -135 c94 -74 175 -135 180 -137 4 -2 8 43 8
100 l0 104 -162 129 c-90 71 -171 135 -180 143 -17 14 -18 9 -18 -95z"/>
<path d="M2072 2885 l-253 -142 -2 -106 c-1 -59 -1 -107 1 -107 2 0 120 64
262 142 l260 142 0 108 c0 59 -3 107 -7 107 -5 -1 -122 -65 -261 -144z"/>
<path d="M1375 2861 l-250 -139 -3 -107 c-2 -84 0 -106 10 -102 7 2 123 65
258 140 l245 135 3 106 c1 58 -1 106 -5 106 -4 0 -120 -63 -258 -139z"/>
<path d="M9282 2658 l-222 -152 0 -114 c0 -62 3 -112 8 -110 4 2 105 68 224
148 l217 145 1 118 c0 64 -1 117 -3 117 -1 0 -102 -68 -225 -152z"/>
<path d="M8663 2628 l-223 -152 0 -113 c0 -62 2 -113 5 -113 3 0 107 68 230
152 l225 152 0 113 c0 62 -3 113 -7 113 -5 0 -108 -69 -230 -152z"/>
<path d="M150 2651 l0 -109 138 -108 c75 -59 156 -123 180 -142 l42 -34 0 108
0 109 -180 142 -180 143 0 -109z"/>
<path d="M6762 2644 l3 -116 305 -144 c168 -79 313 -148 322 -154 26 -15 30 0
24 117 l-5 108 -318 152 c-175 84 -322 152 -326 153 -4 0 -6 -52 -5 -116z"/>
<path d="M7642 2615 l3 -116 318 -149 c175 -83 323 -150 328 -150 6 0 9 45 7
112 l-3 112 -319 153 c-175 84 -323 153 -328 153 -5 0 -7 -52 -6 -115z"/>
<path d="M2070 2565 l-255 -142 -3 -106 c-1 -59 -1 -107 1 -107 7 0 501 271
510 279 4 4 6 55 5 112 l-3 105 -255 -141z"/>
<path d="M640 2584 l0 -109 171 -133 c94 -74 178 -136 186 -139 12 -5 14 11
12 97 l-1 102 -172 136 c-94 74 -177 140 -183 145 -10 7 -13 -14 -13 -99z"/>
<path d="M1363 2497 l-253 -141 0 -103 c0 -57 3 -103 7 -103 4 0 121 62 260
138 l253 137 0 108 c0 59 -3 107 -7 106 -5 -1 -122 -64 -260 -142z"/>
<path d="M101 2368 l0 -113 190 -147 189 -147 0 112 0 112 -177 140 c-97 77
-182 144 -190 148 -10 6 -13 -14 -12 -105z"/>
<path d="M2113 2282 l-263 -146 0 -112 0 -112 268 147 267 147 3 112 c1 61 -1
112 -5 111 -4 0 -126 -66 -270 -147z"/>
<path d="M620 2297 l0 -114 178 -138 c97 -76 183 -143 190 -148 9 -7 12 14 12
101 l0 110 -92 74 c-51 41 -137 109 -190 152 l-98 77 0 -114z"/>
<path d="M9283 2257 l-223 -152 0 -113 c0 -67 4 -112 9 -110 6 2 107 68 225
148 l215 145 1 118 c0 64 -1 117 -2 117 -2 -1 -103 -69 -225 -153z"/>
<path d="M8668 2244 l-228 -156 0 -115 0 -115 29 19 c16 10 119 79 230 153
l200 135 1 118 c0 64 -1 117 -2 117 -2 0 -105 -71 -230 -156z"/>
<path d="M1378 2212 l-267 -147 -1 -113 0 -114 43 24 c23 13 144 80 270 148
l227 125 0 112 c0 62 -1 113 -2 113 -2 0 -123 -67 -270 -148z"/>
<path d="M6762 2243 l3 -116 324 -154 c179 -84 326 -153 329 -153 2 0 1 52 -2
116 l-5 117 -321 153 c-177 85 -324 154 -326 154 -3 0 -3 -53 -2 -117z"/>
<path d="M7640 2232 l0 -117 313 -147 c171 -81 320 -150 330 -154 16 -6 17 3
17 104 0 76 -4 113 -12 120 -12 9 -301 149 -555 268 l-93 43 0 -117z"/>
<path d="M100 2038 l1 -113 189 -148 190 -147 0 112 -1 113 -170 134 c-93 74
-178 141 -189 148 -20 14 -20 12 -20 -99z"/>
<path d="M2113 1952 l-262 -146 -3 -113 c-2 -62 0 -112 3 -111 3 2 125 68 272
148 l267 145 0 113 c0 61 -3 112 -7 111 -5 -1 -126 -67 -270 -147z"/>
<path d="M612 1969 l3 -113 180 -142 c99 -78 183 -143 188 -143 4 -1 7 48 7
107 l0 108 -182 145 c-100 79 -186 146 -190 147 -5 2 -7 -47 -6 -109z"/>
<path d="M9285 1916 l-220 -153 -3 -117 -3 -117 226 151 225 152 0 119 c0 65
-1 119 -2 118 -2 0 -102 -70 -223 -153z"/>
<path d="M1380 1881 l-265 -148 -3 -112 c-1 -62 1 -111 5 -109 8 3 134 72 408
223 l130 72 3 111 c1 62 -1 112 -5 112 -4 -1 -127 -67 -273 -149z"/>
<path d="M6760 1902 l0 -118 323 -152 c178 -84 327 -152 331 -152 10 0 -2 222
-12 231 -6 6 -181 90 -529 255 l-113 53 0 -117z"/>
<path d="M8668 1843 l-228 -156 0 -115 0 -114 28 17 c15 10 118 79 230 154
l202 136 0 117 c0 65 -1 118 -2 118 -2 -1 -105 -71 -230 -157z"/>
<path d="M7640 1827 l0 -113 323 -152 c177 -84 325 -152 330 -152 13 0 8 217
-5 227 -19 14 -627 303 -638 303 -6 0 -10 -47 -10 -113z"/>
<path d="M0 1716 l0 -125 205 -160 c113 -89 208 -161 210 -161 3 0 5 54 5 119
l0 119 -187 148 c-103 82 -198 157 -210 167 l-23 18 0 -125z"/>
<path d="M560 1688 l0 -125 178 -138 c97 -76 189 -150 205 -163 l27 -26 0 126
0 125 -162 128 c-90 71 -182 144 -205 163 l-43 34 0 -124z"/>
<path d="M2193 1617 l-293 -162 0 -123 0 -123 73 40 c39 22 173 95 297 163
l225 123 3 123 c1 67 -1 122 -5 122 -4 0 -140 -74 -300 -163z"/>
<path d="M1405 1596 l-290 -162 -5 -122 c-3 -67 -2 -122 1 -122 8 0 572 309
582 319 4 4 6 62 5 128 l-3 120 -290 -161z"/>
<path d="M9285 1586 l-220 -152 -3 -118 -3 -118 226 153 225 152 0 118 c0 66
-1 119 -2 118 -2 -1 -102 -69 -223 -153z"/>
<path d="M6760 1572 l0 -118 313 -146 c171 -81 321 -150 331 -154 18 -7 19 -3
12 107 -4 63 -10 117 -14 121 -6 5 -313 153 -549 264 l-93 43 0 -117z"/>
<path d="M8663 1497 l-222 -152 -1 -112 c0 -62 2 -113 5 -113 3 0 107 68 230
150 l225 150 0 115 c0 63 -3 115 -7 114 -5 0 -108 -69 -230 -152z"/>
<path d="M7642 1484 l3 -116 305 -144 c168 -79 313 -148 323 -154 25 -15 29 2
25 120 l-3 103 -320 153 c-176 84 -324 153 -328 154 -4 0 -6 -52 -5 -116z"/>
<path d="M0 1348 l1 -123 199 -155 c110 -85 205 -156 210 -158 6 -2 10 41 10
115 l0 118 -202 160 c-111 88 -205 162 -210 163 -4 2 -8 -52 -8 -120z"/>
<path d="M2195 1256 l-290 -162 -3 -123 c-1 -68 1 -121 6 -119 5 1 140 75 300
163 l292 160 0 122 c0 68 -3 123 -7 122 -5 -1 -138 -74 -298 -163z"/>
<path d="M560 1278 l0 -125 197 -154 c108 -85 203 -158 210 -162 10 -6 13 16
13 112 l0 120 -197 157 c-109 86 -204 161 -210 167 -10 7 -13 -17 -13 -115z"/>
<path d="M9283 1227 l-222 -152 -1 -117 0 -117 225 152 225 151 0 118 c0 65
-1 118 -2 117 -2 0 -103 -69 -225 -152z"/>
<path d="M1388 1178 l-288 -160 0 -123 0 -123 295 161 295 162 0 122 c0 68 -3
123 -7 122 -5 -1 -137 -73 -295 -161z"/>
<path d="M6762 1213 l3 -118 320 -152 c176 -84 324 -152 329 -153 10 0 -1 221
-12 232 -7 6 -633 308 -639 308 -2 0 -2 -53 -1 -117z"/>
<path d="M8663 1167 l-222 -152 -1 -112 c0 -62 2 -113 5 -113 3 0 107 68 230
150 l225 150 0 115 c0 63 -3 115 -7 115 -5 -1 -108 -69 -230 -153z"/>
<path d="M7642 1154 l3 -116 315 -149 c173 -82 321 -149 328 -149 10 0 12 26
10 111 l-3 112 -320 153 c-176 84 -324 153 -328 154 -4 0 -6 -52 -5 -116z"/>
<path d="M562 908 l3 -122 200 -157 c110 -87 203 -158 208 -158 4 -1 7 52 7
117 l0 119 -204 161 c-113 89 -207 162 -211 162 -3 0 -4 -55 -3 -122z"/>
<path d="M9419 947 c-48 -34 -148 -104 -223 -155 l-136 -93 0 -114 0 -115 225
150 225 150 0 120 c0 66 -1 120 -2 119 -2 0 -42 -28 -89 -62z"/>
<path d="M1393 816 l-292 -161 -1 -123 c0 -68 3 -121 8 -119 4 3 133 73 287
157 154 84 284 155 288 159 4 4 6 62 5 128 l-3 121 -292 -162z"/>
<path d="M8663 807 l-223 -151 0 -113 c0 -62 2 -113 5 -113 3 0 107 68 230
152 l225 152 0 113 c0 62 -3 113 -7 113 -5 -1 -108 -69 -230 -153z"/>
<path d="M6760 837 l0 -113 323 -152 c177 -84 326 -152 331 -152 10 0 0 220
-11 230 -12 11 -623 300 -634 300 -5 0 -9 -49 -9 -113z"/>
<path d="M7642 795 l3 -115 318 -150 c174 -83 322 -150 327 -150 7 0 10 41 8
112 l-3 112 -319 153 c-175 84 -323 153 -328 153 -5 0 -7 -52 -6 -115z"/>
<path d="M8663 437 l-222 -152 -1 -114 c0 -86 3 -112 13 -108 6 2 110 71 230
151 l217 147 0 115 c0 63 -3 114 -7 113 -5 0 -108 -69 -230 -152z"/>
<path d="M7642 423 l3 -116 323 -153 c217 -102 325 -148 328 -140 3 7 3 59 2
115 l-3 103 -323 154 c-177 85 -325 154 -328 154 -2 0 -3 -52 -2 -117z"/>
</g>
</svg>
