<?xml version="1.0" standalone="no"?>
<!DOCTYPE svg PUBLIC "-//W3C//DTD SVG 20010904//EN"
 "http://www.w3.org/TR/2001/REC-SVG-20010904/DTD/svg10.dtd">
<svg version="1.0" xmlns="http://www.w3.org/2000/svg"
 width="1280.000000pt" height="960.000000pt" viewBox="0 0 1280.000000 960.000000"
 preserveAspectRatio="xMidYMid meet">
<metadata>
Created by potrace 1.15, written by Peter Selinger 2001-2017
</metadata>
<g transform="translate(0.000000,960.000000) scale(0.100000,-0.100000)"
fill="#000000" stroke="none">
<path d="M3752 9584 c-5 -9 -7 -24 -5 -33 2 -9 -104 -235 -237 -502 -179 -363
-246 -488 -261 -492 -27 -7 -193 -350 -181 -375 11 -21 -482 -1025 -1597
-3256 -561 -1122 -781 -1551 -796 -1558 -15 -7 -35 -6 -60 1 -32 9 -42 8 -57
-6 -10 -9 -37 -17 -60 -19 -24 -2 -56 -6 -71 -10 -20 -5 -33 -1 -48 12 -19 17
-21 17 -50 0 -16 -10 -64 -23 -107 -30 -62 -9 -76 -15 -74 -28 2 -13 -11 -18
-73 -23 l-75 -7 0 -1629 0 -1629 6400 0 6400 0 0 1243 0 1242 -78 43 c-76 42
-77 42 -37 40 37 -3 40 -1 40 22 0 22 -14 33 -105 80 -88 47 -106 60 -112 85
-17 65 -259 1836 -423 3095 -69 531 -170 1303 -225 1715 -143 1081 -159 1207
-153 1236 5 28 -42 371 -57 406 -5 12 -19 105 -31 207 l-23 186 -1013 0 c-557
0 -1013 -1 -1013 -3 0 -2 180 -75 400 -163 l400 -159 -6 -55 c-4 -30 -12 -91
-18 -135 l-11 -80 -40 -3 c-22 -2 -83 6 -136 18 l-96 23 -319 278 -319 279
-115 0 -115 0 30 -28 c17 -16 133 -120 258 -232 126 -111 227 -204 225 -205
-3 -4 -1444 353 -1497 370 l-21 6 20 39 c11 22 20 41 20 44 0 3 -208 5 -462 5
l-463 -1 168 -43 c93 -24 170 -45 173 -47 2 -3 -2 -22 -9 -44 -14 -39 -18 -41
-713 -421 -806 -440 -759 -422 -830 -330 -22 28 -109 139 -193 244 l-153 193
39 43 c21 24 111 126 201 225 l163 182 -1195 0 c-1098 0 -1196 -1 -1204 -16z
m1943 -156 c3 -24 9 -57 11 -73 4 -24 -1 -36 -24 -58 l-29 -27 -44 55 c-24 30
-44 60 -44 65 0 9 101 77 117 79 3 1 9 -18 13 -41z m2976 -167 c316 -76 723
-174 904 -217 321 -76 331 -79 378 -117 26 -21 47 -42 47 -46 0 -3 -183 -19
-407 -34 -225 -16 -784 -59 -1243 -97 -2004 -166 -2012 -167 -1974 -131 22 22
395 223 839 454 l480 250 175 38 c96 20 187 38 201 38 15 1 285 -61 600 -138z
m-3571 -275 c48 -50 102 -108 119 -128 l33 -38 -24 -28 c-97 -116 -183 -210
-186 -204 -1 5 -22 116 -47 247 -46 249 -46 263 -1 249 10 -4 58 -47 106 -98z
m4945 -225 c-15 -14 -1008 -393 -1082 -413 -13 -3 -356 312 -348 320 4 5 1316
107 1415 111 34 1 34 1 15 -18z m-4301 -439 c137 -142 156 -166 156 -195 0
-18 4 -37 9 -42 6 -6 4 -209 -4 -525 -8 -283 -24 -920 -35 -1415 -11 -495 -25
-1055 -30 -1245 -5 -190 -10 -362 -10 -382 0 -35 -2 -38 -30 -38 -16 0 -30 1
-30 3 0 1 -159 879 -354 1952 l-353 1950 147 160 148 161 115 -111 c63 -60
185 -183 271 -273z m4533 316 c7 -6 11 -14 8 -18 -2 -3 -29 -186 -60 -405 -30
-220 -57 -401 -59 -403 -4 -4 -668 117 -674 123 -2 2 2 39 8 82 l12 78 279
280 279 280 97 -3 c54 -2 104 -9 110 -14z m-6052 -549 c-8 -288 -24 -882 -35
-1319 -11 -437 -29 -1105 -40 -1485 -11 -379 -20 -701 -20 -714 l0 -23 -802 7
c-442 4 -805 9 -807 11 -2 2 3 12 12 22 20 22 227 504 237 552 11 51 610 1452
626 1465 17 13 186 410 189 446 3 29 470 1146 490 1169 19 23 145 340 145 365
0 21 9 39 17 32 1 -2 -4 -240 -12 -528z m3496 464 c-28 -32 -90 -101 -139
-153 l-89 -94 -479 93 c-263 52 -488 97 -499 102 -17 7 -16 8 9 8 46 1 930 71
1081 85 77 8 146 14 153 15 8 0 -9 -25 -37 -56z m974 -90 c85 -81 155 -149
155 -152 0 -11 -464 -181 -492 -181 -14 0 -28 4 -30 9 -1 5 -147 37 -323 71
-336 64 -394 76 -400 82 -2 1 54 62 124 135 102 104 135 133 162 138 50 8 492
42 577 44 l72 1 155 -147z m950 -103 l-220 -220 -107 -22 -107 -23 -89 85
c-49 47 -90 87 -91 90 -1 5 804 307 824 309 5 1 -89 -98 -210 -219z m-2625
-51 c212 -39 388 -75 392 -78 3 -3 -51 -65 -120 -137 l-127 -130 -96 9 -96 9
-208 208 c-198 198 -206 208 -169 200 21 -5 212 -41 424 -81z m-323 -161 l222
-223 10 -105 c8 -90 7 -107 -6 -117 -12 -10 -19 -7 -38 15 -86 105 -487 616
-491 627 -5 13 9 18 66 24 8 0 115 -99 237 -221z m-2042 50 c5 -34 3 -47 -9
-57 -14 -12 -16 -5 -15 65 0 83 11 79 24 -8z m4413 -83 c71 -66 131 -123 131
-126 1 -6 -616 104 -624 113 -3 3 65 31 152 63 87 32 167 62 178 66 11 4 23 7
26 6 4 -1 65 -56 137 -122z m-1246 41 c224 -41 293 -58 318 -76 17 -12 28 -26
23 -30 -18 -16 -1155 -431 -1172 -428 -15 2 46 72 257 296 152 160 279 292
283 292 3 0 134 -24 291 -54z m1127 -207 l356 -61 83 -76 c45 -41 80 -78 77
-81 -7 -6 -2288 -140 -2295 -134 -2 2 5 6 15 9 11 3 263 95 560 204 l540 198
154 1 c145 1 175 -3 510 -60z m-3995 -1229 c291 -1440 442 -2217 434 -2225
-12 -13 -833 56 -848 71 -2 3 15 703 38 1556 34 1280 44 1554 56 1567 9 10 17
58 23 133 6 72 15 123 23 134 13 15 15 15 22 -2 4 -11 117 -566 252 -1234z
m1629 724 l47 -51 -236 -247 c-130 -135 -238 -246 -241 -246 -7 0 4 648 13
841 l7 125 181 -185 c100 -102 203 -209 229 -237z m3192 356 c116 -21 203 -40
195 -43 -8 -3 -93 -9 -189 -14 l-174 -8 -61 58 -61 58 40 -6 c22 -4 135 -24
250 -45z m145 -136 c-25 -8 -75 -23 -112 -33 l-66 -19 -28 29 -27 28 69 4 c38
1 101 4 139 4 l70 1 -45 -14z m-326 -43 c33 -34 36 -40 20 -44 -11 -4 -138
-40 -283 -82 l-264 -77 -104 104 -103 103 287 16 c438 24 402 26 447 -20z
m542 -49 c-3 -15 -13 -84 -22 -154 l-17 -127 -56 49 c-31 27 -81 72 -111 100
l-55 50 60 57 60 58 73 -3 73 -4 -5 -26z m-2002 -82 l-90 -91 -350 56 c-425
67 -450 72 -409 75 202 13 808 47 865 49 l75 1 -91 -90z m760 3 c55 -51 90
-91 83 -95 -6 -3 -69 -21 -140 -40 -97 -25 -131 -37 -135 -50 -5 -19 -22 -23
-37 -9 -6 5 -126 26 -267 47 -142 21 -258 41 -258 45 0 3 35 40 79 82 51 50
87 77 102 78 13 0 114 6 224 13 110 7 212 14 227 15 22 1 48 -18 122 -86z
m954 61 c-9 -9 -22 -14 -30 -11 -8 3 -4 8 12 15 35 15 37 14 18 -4z m-115 -62
l27 -28 -135 -134 -135 -135 -94 1 -94 0 -86 79 c-47 43 -86 81 -86 84 0 6
534 159 561 160 8 1 27 -12 42 -27z m-2089 -102 c176 -28 326 -50 334 -50 7 0
-37 -54 -100 -119 l-113 -120 -60 5 c-33 3 -71 8 -84 10 -23 5 -341 308 -341
324 0 4 10 5 23 3 12 -2 166 -26 341 -53z m-259 -132 c180 -177 185 -184 185
-223 0 -37 -2 -41 -37 -52 -29 -9 -41 -9 -49 0 -24 26 -354 446 -354 452 0 3
16 5 35 5 31 0 51 -17 220 -182z m2564 39 l131 -119 -6 -41 c-4 -23 -7 -43 -8
-44 -1 -1 -465 68 -516 77 -3 0 54 57 125 125 72 68 133 123 137 122 4 -1 66
-55 137 -120z m-785 -66 c-1 -2 -75 7 -164 20 -98 13 -157 26 -152 31 6 6 52
22 103 37 l94 28 61 -56 c34 -31 60 -58 58 -60z m-865 59 c106 -16 195 -31
197 -33 2 -2 -145 -45 -328 -95 -182 -50 -333 -90 -335 -89 -1 2 49 58 113
125 79 84 122 122 137 122 12 0 109 -14 216 -30z m-1914 -1256 c-157 -692
-288 -1261 -291 -1263 -3 -3 -3 62 1 144 3 83 12 440 20 795 19 853 22 907 46
913 16 4 19 15 19 74 1 37 6 80 13 94 12 26 468 512 474 505 2 -2 -125 -570
-282 -1262z m2640 1156 l220 -31 62 -62 c34 -33 61 -63 58 -65 -4 -5 -970 -48
-1260 -56 -115 -4 -250 -9 -300 -12 -67 -5 -87 -3 -79 5 6 6 179 59 385 117
298 84 399 108 499 120 69 8 130 16 135 18 6 3 21 3 35 1 14 -3 124 -18 245
-35z m723 -109 c74 -11 137 -22 140 -25 3 -3 -19 -6 -49 -6 -30 0 -111 -3
-181 -7 l-127 -6 5 24 c11 49 13 50 46 44 18 -3 93 -14 166 -24z m-16 -118
l-144 -35 -24 23 c-13 12 -24 26 -24 30 0 7 77 12 275 16 56 1 50 -1 -83 -34z
m-260 -18 c24 -23 34 -37 26 -40 -7 -3 -87 -22 -178 -43 -187 -44 -161 -48
-260 41 -29 26 -50 50 -46 54 5 6 193 17 360 21 54 2 62 -1 98 -33z m568 -9
c0 -40 -40 -330 -47 -336 -3 -3 -8 1 -10 8 -3 6 -19 12 -37 12 -26 0 -45 13
-109 78 l-78 79 96 91 c91 88 98 92 140 92 41 0 45 -2 45 -24z m-2827 -147
c61 -61 107 -115 107 -125 0 -11 -49 -68 -114 -133 l-113 -113 -8 44 c-4 23
-9 113 -10 198 -1 85 -5 187 -10 225 l-7 70 23 -30 c13 -17 72 -78 132 -136z
m1297 147 c0 -2 -29 -29 -63 -60 l-64 -56 -304 44 c-167 25 -286 45 -264 46
22 1 153 7 290 14 278 15 405 18 405 12z m1275 -66 l-70 -70 -39 40 c-22 21
-38 41 -36 43 4 3 178 50 210 56 2 1 -27 -31 -65 -69z m-759 0 c30 -28 55 -53
56 -57 2 -3 -60 -21 -137 -39 -98 -23 -142 -29 -147 -21 -3 6 -12 11 -20 12
-7 1 -82 10 -165 21 -84 10 -153 21 -153 24 0 3 20 26 45 50 l46 45 107 6 c59
3 154 6 211 7 l104 2 53 -50z m-1241 -160 l149 -150 -32 -6 c-18 -4 -32 -10
-32 -15 0 -31 -41 8 -141 133 -63 79 -118 148 -122 155 -10 15 -1 33 16 33 7
0 80 -67 162 -150z m1834 99 l54 -50 -44 -45 c-50 -51 -54 -51 -238 -30 -112
14 -114 15 -153 54 l-40 39 159 41 c87 22 169 40 183 41 17 0 43 -17 79 -50z
m-1584 0 c159 -23 292 -43 295 -45 2 -3 -29 -38 -70 -79 l-75 -75 -94 -19 -95
-19 -143 136 c-79 74 -143 137 -143 139 0 7 44 2 325 -38z m510 -69 c155 -19
154 -19 -60 -66 -110 -24 -202 -44 -205 -44 -2 0 25 29 60 65 53 54 69 65 90
60 14 -2 66 -9 115 -15z m626 -6 l24 -27 -55 7 c-30 3 -72 6 -92 6 -53 0 -47
15 10 27 74 16 87 15 113 -13z m-2393 -59 c2 -22 -4 -79 -13 -127 l-17 -88
-59 0 c-33 0 -59 4 -59 9 0 5 11 61 25 125 14 64 25 118 25 121 0 4 21 5 48 3
l47 -3 3 -40z m2977 5 l40 -41 -60 6 c-91 10 -92 11 -60 45 16 17 31 30 35 30
3 0 24 -18 45 -40z m-667 -7 l163 -16 42 -38 42 -37 -85 -6 c-47 -3 -242 -10
-435 -16 -192 -5 -413 -13 -490 -16 -136 -6 -139 -6 -122 12 25 27 532 132
642 133 44 1 153 -6 243 -16z m382 -42 l45 -7 -53 -12 c-70 -16 -76 -15 -97 8
-18 20 -17 20 21 19 21 0 59 -4 84 -8z m270 -31 c26 -6 9 -8 -62 -9 -90 -1
-110 4 -91 22 7 7 96 0 153 -13z m-2437 -965 c-12 -503 -23 -921 -26 -927 -7
-19 -10 14 -97 846 l-80 769 106 113 c58 63 109 114 113 114 3 0 -4 -412 -16
-915z m2482 909 c-21 -8 -219 -43 -223 -40 -2 3 -1 14 3 25 6 20 13 21 118 20
62 0 108 -2 102 -5z m-380 -34 c16 -16 27 -31 24 -34 -2 -2 -53 -13 -114 -24
l-110 -20 -48 46 -48 47 98 6 c54 3 114 6 134 7 28 2 41 -4 64 -28z m-746 -36
l-47 -46 -198 21 c-366 39 -370 46 -29 59 132 5 258 10 280 10 l40 2 -46 -46z
m1295 17 l27 -28 -11 -89 c-15 -117 -16 -119 -34 -101 -9 9 -48 17 -103 21
-167 14 -164 4 -38 122 61 57 115 104 121 104 5 0 23 -13 38 -29z m-204 -67
c-45 -44 -85 -80 -88 -82 -4 -1 -32 22 -62 53 -38 39 -49 56 -39 60 18 7 263
53 267 50 1 -1 -34 -38 -78 -81z m-2090 -165 c0 -48 -3 -57 -17 -55 -15 1 -20
-13 -28 -81 l-10 -83 -67 -60 c-36 -33 -68 -60 -70 -60 -3 0 8 571 11 578 0 1
41 -39 91 -90 l89 -93 1 -56z m1459 197 l33 -34 -79 -17 c-90 -21 -108 -21
-262 0 -63 8 -121 15 -130 15 -10 0 -6 9 14 30 32 33 45 35 256 38 l135 2 33
-34z m-1151 -38 c4 -35 -10 -36 -32 -3 -21 32 -20 37 7 33 16 -2 23 -11 25
-30z m597 -30 c3 -2 -15 -23 -38 -46 -43 -42 -43 -42 -185 -65 l-141 -23 -76
76 -75 75 20 21 20 20 236 -27 c129 -15 237 -29 239 -31z m980 -9 l60 -61 -50
6 c-27 3 -101 11 -162 17 -87 9 -117 17 -130 31 -9 10 -14 20 -12 22 4 5 192
43 219 45 9 1 42 -27 75 -60z m-344 -17 c-7 -2 -29 -1 -49 4 l-37 8 35 6 c34
6 77 -9 51 -18z m-1066 -126 c-33 -25 -48 -18 -98 46 -45 58 -46 62 -30 80 16
18 19 17 82 -46 63 -63 65 -66 46 -80z m649 134 c51 0 20 -12 -81 -31 -140
-26 -143 -26 -107 12 28 30 31 31 94 25 36 -3 78 -6 94 -6z m384 -43 c93 -12
106 -16 134 -44 l30 -31 -153 -6 c-85 -3 -278 -8 -429 -11 l-275 -6 20 20 c16
17 57 28 190 51 260 45 312 48 483 27z m420 -46 c1 -1 2 -5 2 -10 0 -5 -43
-12 -96 -16 -91 -7 -97 -6 -120 16 -13 12 -24 25 -24 29 0 4 208 -13 238 -19z
m-1168 -46 c-9 -11 -30 -15 -74 -14 l-61 2 60 12 c85 18 90 18 75 0z m1290
-14 c0 -10 -109 -26 -118 -16 -4 3 0 10 8 15 19 12 110 13 110 1z m-317 -21
c15 -12 27 -25 27 -29 0 -5 -37 -12 -82 -18 l-82 -9 -33 29 c-18 16 -33 33
-33 37 0 4 40 8 88 9 76 2 92 -1 115 -19z m-588 -29 l-30 -29 -160 15 c-88 8
-167 17 -175 20 -30 12 56 20 225 22 l170 1 -30 -29z m1134 2 c-1 -16 -4 -41
-8 -56 l-6 -28 -39 40 c-33 34 -37 42 -26 56 7 8 28 15 46 15 31 0 34 -3 33
-27z m-744 -13 c10 -11 16 -22 14 -24 -2 -1 -35 -8 -74 -14 -52 -9 -102 -9
-193 0 -117 11 -122 12 -106 29 20 22 45 25 210 27 119 2 132 0 149 -18z m573
7 c9 -10 -1 -26 -43 -67 -51 -51 -55 -53 -96 -47 -58 8 -71 23 -59 69 10 34
14 37 63 46 77 14 123 14 135 -1z m-1551 -39 c22 -25 35 -65 24 -73 -7 -4 -50
37 -80 78 -12 15 -11 17 11 17 13 0 34 -10 45 -22z m364 -3 c78 -8 144 -17
146 -18 1 -2 -10 -15 -25 -30 -24 -23 -45 -29 -171 -48 l-143 -21 -34 33 -34
33 32 33 c37 38 35 38 229 18z m904 -21 l40 -35 -95 7 c-92 6 -139 18 -125 32
5 6 58 17 135 30 3 1 23 -15 45 -34z m413 -66 c2 -5 -13 -6 -35 -4 -21 3 -60
8 -87 11 l-48 7 37 38 38 39 46 -41 c25 -23 48 -46 49 -50z m-643 62 c4 -6 -7
-10 -25 -10 -18 0 -29 4 -25 10 3 6 15 10 25 10 10 0 22 -4 25 -10z m-1288
-199 c-5 -99 -8 -116 -28 -137 -12 -13 -26 -24 -29 -24 -4 0 -10 53 -14 118
-3 64 -9 146 -12 182 l-6 65 47 -45 47 -45 -5 -114z m918 189 c3 -5 -2 -10
-13 -10 -11 0 -41 -3 -68 -7 -45 -6 -48 -5 -35 10 15 19 105 24 116 7z m-2225
-27 c-1 -10 -20 -110 -44 -223 l-42 -205 -54 -3 c-29 -2 -56 0 -60 5 -6 7 69
389 85 431 3 7 25 12 60 12 46 0 55 -3 55 -17z m2658 -26 l24 -22 -49 -7 c-26
-3 -174 -7 -327 -7 -224 -1 -278 2 -268 12 7 6 74 22 150 34 115 18 162 21
292 17 141 -5 157 -8 178 -27z m-1003 -4 c14 -19 0 -53 -22 -53 -23 0 -33 34
-16 52 20 22 23 22 38 1z m1197 2 c94 -10 79 -25 -25 -25 -82 0 -96 3 -113 21
-18 20 -18 20 31 15 28 -3 76 -8 107 -11z m-887 -35 c-3 -5 -30 -9 -58 -9 -49
2 -50 2 -17 9 53 11 82 11 75 0z m-1576 -825 c49 -418 87 -762 85 -764 -2 -2
-49 0 -105 4 l-102 7 6 462 c9 593 21 1119 25 1081 2 -16 43 -372 91 -790z
m2347 786 c28 -22 25 -24 -54 -36 -37 -6 -47 -4 -68 16 -23 21 -23 24 -7 30
37 15 104 9 129 -10z m188 9 c-18 -18 -109 -28 -128 -15 -28 21 -18 25 61 25
53 0 74 -3 67 -10z m-666 -26 l-26 -26 -114 11 c-63 6 -123 11 -133 11 -12 0
-15 3 -9 9 9 10 75 16 224 19 l85 2 -27 -26z m-345 9 c-13 -2 -33 -2 -45 0
-13 2 -3 4 22 4 25 0 35 -2 23 -4z m1207 -18 c-22 -24 -24 -24 -43 -8 -19 18
-18 18 5 24 12 4 32 7 42 8 18 1 18 -1 -4 -24z m120 -9 c0 -18 -3 -48 -6 -65
-6 -27 -11 -31 -40 -31 -25 0 -38 7 -53 29 -12 16 -21 32 -21 35 0 12 83 66
102 66 14 0 18 -8 18 -34z m-660 9 c17 -20 15 -21 -50 -32 -35 -5 -89 -5 -147
2 -141 16 -138 32 7 38 47 2 106 4 131 5 32 1 51 -3 59 -13z m455 -25 c24 -25
26 -32 15 -45 -11 -13 -24 -15 -64 -10 -28 4 -52 9 -54 10 -2 2 0 19 3 39 7
32 10 36 39 36 23 0 41 -9 61 -30z m-2179 -450 l-64 -435 -1 191 c-2 292 9
524 25 524 8 0 15 21 19 58 6 47 13 64 44 95 29 31 36 35 39 20 1 -10 -27
-214 -62 -453z m891 428 c19 -18 33 -42 33 -55 0 -31 -6 -29 -38 9 -64 76 -65
78 -46 78 10 0 33 -14 51 -32z m328 17 c50 -4 98 -9 108 -12 18 -5 18 -6 -1
-19 -21 -15 -320 -59 -330 -49 -3 3 14 26 38 50 35 36 50 45 70 41 14 -3 66
-8 115 -11z m740 -15 c18 -20 17 -20 -44 -20 -34 0 -72 5 -84 12 -22 12 -21
12 8 19 60 13 101 10 120 -11z m-515 -10 c0 -5 -16 -10 -36 -10 -21 0 -33 4
-29 10 3 6 19 10 36 10 16 0 29 -4 29 -10z m322 -25 c31 -4 61 -12 67 -19 17
-20 -51 -26 -302 -26 -182 0 -218 2 -208 13 7 9 58 18 143 26 73 7 142 14 153
15 20 3 43 1 147 -9z m-1150 -12 c19 -17 25 -59 8 -65 -6 -2 -17 -66 -25 -142
-14 -127 -24 -166 -45 -166 -4 0 -5 80 -3 178 4 139 9 181 21 195 19 21 21 21
44 0z m1398 -10 c8 -4 -14 -10 -50 -13 -52 -5 -68 -3 -82 9 -16 15 -12 16 50
13 37 -2 74 -6 82 -9z m-2779 -535 c-6 -288 -14 -604 -17 -703 l-6 -180 -91 3
c-51 2 -106 7 -123 10 l-30 7 135 697 c75 383 138 695 139 693 2 -2 -1 -239
-7 -527z m2884 522 c18 -8 17 -9 -7 -9 -16 -1 -28 4 -28 9 0 12 8 12 35 0z
m-860 -10 c-29 -12 -114 -12 -95 0 8 5 38 9 65 9 37 0 45 -3 30 -9z m1000 0
c17 -7 16 -9 -10 -9 -16 0 -39 4 -50 9 -17 7 -16 9 10 9 17 0 39 -4 50 -9z
m-198 -26 c6 -17 -106 -28 -125 -12 -13 11 -8 14 34 19 64 8 87 6 91 -7z
m-574 -15 c-19 -20 -27 -21 -117 -14 -53 4 -96 11 -96 16 0 4 42 10 93 12 50
1 103 4 117 5 l24 2 -21 -21z m405 9 c20 -20 14 -26 -28 -30 -32 -3 -45 1 -62
19 l-21 23 49 0 c28 0 55 -5 62 -12z m-670 -5 c-10 -2 -26 -2 -35 0 -10 3 -2
5 17 5 19 0 27 -2 18 -5z m1019 -39 l-38 -36 -30 28 -30 29 28 6 c15 4 46 7
68 8 l40 1 -38 -36z m116 -35 c-4 -24 -7 -25 -61 -21 -31 2 -59 7 -62 9 -3 3
15 22 40 43 l45 39 22 -22 c15 -15 20 -30 16 -48z m-579 52 c8 -13 -30 -21
-104 -21 -88 0 -171 11 -164 21 7 12 261 12 268 0z m-762 -18 c10 -9 18 -29
18 -45 l0 -30 -35 42 c-19 23 -35 44 -35 46 0 11 36 2 52 -13z m168 9 c0 -5
-11 -19 -25 -32 l-26 -24 -32 32 -32 32 58 0 c31 0 57 -4 57 -8z m243 -22 c18
-17 -25 -28 -133 -35 l-115 -7 30 32 30 31 90 -7 c49 -3 94 -10 98 -14z m577
10 c0 -5 -2 -10 -4 -10 -3 0 -8 5 -11 10 -3 6 -1 10 4 10 6 0 11 -4 11 -10z
m135 -15 l30 -25 -37 0 c-34 0 -38 3 -38 25 0 31 7 31 45 0z m-190 4 c4 -6 5
-12 4 -14 -8 -7 -99 8 -99 16 0 13 88 11 95 -2z m-1511 -459 l-8 -115 -18 264
-19 264 23 24 23 25 3 -174 c2 -95 0 -225 -4 -288z m1063 454 c-3 -3 -12 -4
-19 -1 -8 3 -5 6 6 6 11 1 17 -2 13 -5z m353 -39 c11 -13 -14 -15 -216 -15
-140 0 -224 4 -218 9 14 14 61 18 250 19 142 2 174 -1 184 -13z m145 -5 c4 -6
-13 -10 -44 -10 -27 0 -53 5 -56 10 -4 6 13 10 44 10 27 0 53 -4 56 -10z
m-622 -7 c-7 -2 -19 -2 -25 0 -7 3 -2 5 12 5 14 0 19 -2 13 -5z m765 0 c-10
-2 -28 -2 -40 0 -13 2 -5 4 17 4 22 1 32 -1 23 -4z m-1326 -163 l-8 -125 -8
128 c-6 101 -5 131 6 144 12 15 13 15 16 -3 1 -10 -1 -75 -6 -144z m1458 150
c0 -5 -4 -10 -10 -10 -5 0 -10 5 -10 10 0 6 5 10 10 10 6 0 10 -4 10 -10z
m-931 -26 c9 -8 -45 -2 -64 6 -14 7 -8 8 20 3 22 -3 42 -7 44 -9z m221 7 c0
-15 -28 -21 -95 -21 -99 0 -112 14 -20 21 44 3 88 6 98 7 9 1 17 -2 17 -7z
m339 -5 c9 -11 5 -15 -20 -20 -31 -6 -59 6 -59 25 0 14 67 10 79 -5z m131 4
c0 -5 -20 -10 -45 -10 -25 0 -45 5 -45 10 0 6 20 10 45 10 25 0 45 -4 45 -10z
m83 3 c-7 -2 -19 -2 -25 0 -7 3 -2 5 12 5 14 0 19 -2 13 -5z m233 -19 c-3 -9
-6 -23 -6 -32 0 -12 -6 -10 -26 9 l-26 24 24 6 c37 11 41 10 34 -7z m-542 -3
c3 -5 -15 -12 -40 -16 -56 -8 -196 4 -188 16 7 12 221 12 228 0z m431 -2 c11
-17 -26 -49 -55 -49 -15 0 -35 9 -44 19 -17 18 -17 20 1 30 24 14 90 14 98 0z
m-1106 -30 c16 -20 20 -34 14 -40 -12 -12 -66 47 -57 62 9 14 17 10 43 -22z
m165 22 c18 -7 18 -8 -5 -24 -33 -24 -63 -21 -96 8 l-28 24 55 0 c30 0 64 -4
74 -8z m149 -11 c103 0 73 -18 -43 -26 l-95 -7 19 22 c11 12 26 19 34 16 7 -3
46 -5 85 -5z m622 1 c-16 -15 -77 -18 -82 -3 -3 8 9 12 43 12 29 0 44 -4 39
-9z m-115 -11 c0 -5 -18 -10 -41 -10 -24 0 -38 4 -34 10 3 6 22 10 41 10 19 0
34 -4 34 -10z m325 -28 c-34 -4 -42 3 -25 23 12 14 15 14 33 -2 19 -18 19 -18
-8 -21z m-405 -7 c11 -13 -10 -15 -181 -15 -173 1 -192 2 -175 15 29 22 338
22 356 0z m-940 -40 c0 -13 -7 -25 -15 -29 -12 -4 -15 3 -15 36 0 35 2 39 15
28 8 -7 15 -23 15 -35z m1065 35 c8 -13 -65 -13 -85 0 -11 7 -2 10 32 10 26 0
50 -4 53 -10z m-552 -7 c-13 -2 -33 -2 -45 0 -13 2 -3 4 22 4 25 0 35 -2 23
-4z m690 0 c-7 -2 -21 -2 -30 0 -10 3 -4 5 12 5 17 0 24 -2 18 -5z m-710 -30
c-7 -2 -19 -2 -25 0 -7 3 -2 5 12 5 14 0 19 -2 13 -5z m187 -3 c0 -6 -30 -10
-70 -10 -40 0 -70 4 -70 10 0 6 30 10 70 10 40 0 70 -4 70 -10z m304 1 c10
-15 -43 -19 -55 -5 -9 11 -6 14 19 14 17 0 33 -4 36 -9z m111 -1 c-3 -5 -19
-10 -35 -10 -16 0 -32 5 -35 10 -4 6 10 10 35 10 25 0 39 -4 35 -10z m98 3
c-7 -2 -19 -2 -25 0 -7 3 -2 5 12 5 14 0 19 -2 13 -5z m127 -13 c0 -5 -4 -10
-10 -10 -5 0 -10 5 -10 10 0 6 5 10 10 10 6 0 10 -4 10 -10z m70 -25 c0 -28
-4 -35 -19 -35 -23 0 -45 25 -36 40 6 9 34 25 53 29 1 1 2 -15 2 -34z m-942
15 c25 0 25 0 7 -20 -23 -25 -79 -19 -110 12 l-20 20 49 -6 c27 -3 60 -6 74
-6z m415 3 c-29 -2 -78 -2 -110 0 -32 2 -8 3 52 3 61 0 87 -1 58 -3z m411 -12
c15 -16 15 -19 2 -24 -8 -3 -31 -3 -51 0 -34 5 -35 7 -19 24 22 24 46 24 68 0z
m-645 -12 c-8 -5 -45 -9 -84 -9 -57 1 -67 3 -54 13 10 8 41 11 84 9 45 -3 63
-7 54 -13z m509 4 c2 -9 -8 -13 -32 -13 -38 0 -57 16 -29 23 29 8 56 3 61 -10z
m-838 -27 c-13 -13 -35 7 -25 24 5 8 11 8 21 -1 10 -8 12 -15 4 -23z m723 27
c-7 -2 -19 -2 -25 0 -7 3 -2 5 12 5 14 0 19 -2 13 -5z m-78 -23 c4 -7 -47 -10
-147 -9 -92 1 -143 4 -128 9 37 12 268 12 275 0z m98 -7 c-13 -2 -33 -2 -45 0
-13 2 -3 4 22 4 25 0 35 -2 23 -4z m-1061 -105 c-5 -128 -22 -154 -22 -36 0
75 11 138 23 138 2 0 2 -46 -1 -102z m1343 82 c4 -6 -8 -10 -30 -10 -22 0 -34
4 -30 10 3 6 17 10 30 10 13 0 27 -4 30 -10z m-1700 -117 l-10 -118 -3 104
c-3 104 0 131 15 131 4 0 4 -53 -2 -117z m923 110 c-21 -2 -57 -2 -80 0 -24 2
-7 4 37 4 44 0 63 -2 43 -4z m155 0 c-18 -2 -48 -2 -65 0 -18 2 -4 4 32 4 36
0 50 -2 33 -4z m280 0 c-7 -2 -21 -2 -30 0 -10 3 -4 5 12 5 17 0 24 -2 18 -5z
m90 0 c-13 -2 -33 -2 -45 0 -13 2 -3 4 22 4 25 0 35 -2 23 -4z m51 -151 c-23
-5 -128 99 -111 110 8 5 33 -13 70 -50 43 -42 54 -58 41 -60z m216 97 c0 -5
-9 -9 -20 -9 -22 0 -27 16 -7 23 15 5 27 -1 27 -14z m-921 -33 c-9 -9 -50 25
-43 36 4 6 14 2 27 -11 12 -11 19 -23 16 -25z m101 29 c-9 -11 -22 -14 -44 -9
-55 11 -53 24 3 24 47 0 52 -2 41 -15z m105 -40 c-64 -58 -95 -67 -127 -38
-18 16 -17 18 24 54 40 35 48 38 103 38 l60 0 -60 -54z m139 43 c-9 -22 -126
-108 -145 -108 -31 0 -22 16 38 69 39 35 66 51 85 51 18 0 26 -4 22 -12z m258
-48 c86 -81 49 -82 -51 0 -71 58 -73 60 -43 60 25 0 45 -13 94 -60z m118 51
c0 -19 -42 -23 -58 -7 -15 15 -13 16 21 16 20 0 37 -4 37 -9z m120 -5 c0 -25
-26 -39 -50 -26 -17 9 -19 14 -9 26 15 18 59 18 59 0z m-337 -62 c32 -25 57
-47 55 -48 -1 -1 -65 -1 -141 2 l-137 4 56 44 c34 27 67 44 83 44 16 0 49 -18
84 -46z m357 36 c0 -5 -10 -15 -22 -21 -23 -12 -23 -12 -4 10 21 23 26 26 26
11z m-84 -21 c3 -6 -1 -18 -10 -27 -15 -15 -16 -14 -16 11 0 27 13 36 26 16z
m-808 -19 c43 -26 33 -40 -29 -40 -45 0 -49 2 -49 23 0 43 26 49 78 17z m992
10 c0 -5 -2 -10 -4 -10 -3 0 -8 5 -11 10 -3 6 -1 10 4 10 6 0 11 -4 11 -10z
m-42 -52 c-23 -5 -37 -2 -48 8 -13 14 -13 17 4 29 16 12 22 11 48 -8 l30 -22
-34 -7z m-1236 -115 c-10 -30 -24 -11 -18 25 3 20 6 60 7 87 2 43 3 39 9 -25
4 -41 5 -81 2 -87z m-2073 102 c2 -3 -18 -116 -45 -252 l-50 -248 -62 -3 c-39
-2 -62 1 -62 8 0 13 99 481 105 499 4 10 18 12 57 7 29 -4 54 -9 57 -11z
m2316 -45 c-10 -11 -22 -20 -27 -20 -4 0 -8 9 -8 20 0 15 7 20 27 20 25 0 26
0 8 -20z m148 13 c3 -5 -35 -46 -84 -91 l-89 -84 0 52 c0 49 3 55 43 91 34 31
50 38 84 39 23 0 44 -3 46 -7z m649 -71 c57 -42 133 -102 167 -132 l63 -55 -5
-354 -6 -354 -47 -69 c-26 -38 -54 -74 -62 -81 -11 -9 -106 -12 -361 -12 -190
0 -376 -4 -412 -9 l-66 -9 -32 47 c-18 26 -34 61 -37 79 -2 18 -9 196 -15 396
l-10 364 45 45 c24 25 96 85 158 133 l113 87 201 1 202 1 104 -78z m153 -12
c86 -86 103 -115 53 -90 -32 17 -168 152 -168 167 0 29 30 9 115 -77z m49 46
c33 -39 48 -86 28 -86 -4 0 -37 29 -72 65 l-64 65 36 0 c31 0 42 -7 72 -44z
m36 28 c0 -17 -22 -14 -28 4 -2 7 3 12 12 12 9 0 16 -7 16 -16z m-1406 -91
c-3 -49 -10 -104 -15 -123 -6 -25 -7 -13 -4 44 3 43 5 99 5 123 0 23 5 43 11
43 7 0 8 -29 3 -87z m562 79 c-2 -4 -26 -23 -53 -41 l-48 -34 40 41 c21 23 45
42 53 42 7 0 11 -3 8 -8z m635 -19 c13 -17 13 -17 -6 -3 -11 8 -22 16 -24 17
-2 2 0 3 6 3 6 0 17 -8 24 -17z m-1063 -230 c-2 -122 -6 -167 -15 -171 -10 -3
-13 32 -13 151 0 154 4 187 21 187 6 0 8 -70 7 -167z m-887 -243 l-6 -295 -35
-3 -36 -3 38 288 c20 158 38 294 38 302 0 8 2 12 4 10 1 -2 0 -137 -3 -299z
m889 -115 c0 -120 -3 -145 -14 -145 -26 0 -28 18 -21 156 6 104 11 134 21 134
11 0 14 -28 14 -145z m-3755 -100 c94 -8 267 -19 385 -26 118 -6 216 -12 217
-13 2 -1 16 -67 32 -147 16 -79 38 -184 49 -232 15 -64 17 -89 9 -92 -10 -3
-298 -27 -612 -51 l-80 -6 -37 76 c-21 42 -38 83 -38 92 0 16 -39 92 -147 287
-30 54 -52 105 -49 113 7 18 54 18 271 -1z m-680 -237 c-7 -307 -10 -327 -38
-333 -12 -2 -436 -49 -942 -105 -506 -55 -939 -102 -962 -105 -30 -3 -43 -1
-42 8 0 6 74 181 163 387 l164 375 353 5 c195 3 569 6 832 8 l478 3 -6 -243z
m1705 160 c0 -18 -3 -64 -7 -103 l-6 -70 -18 90 c-23 117 -23 115 6 115 22 0
25 -4 25 -32z m879 -5 l24 -6 -5 -149 c-3 -82 -8 -151 -10 -153 -7 -8 -298
-29 -304 -22 -5 5 44 257 62 320 5 15 19 17 107 17 56 0 113 -3 126 -7z m428
-16 c1 -1 6 -40 12 -87 6 -47 14 -100 17 -117 l5 -33 -55 0 c-64 0 -59 -5
-150 164 l-49 89 109 -7 c60 -4 110 -8 111 -9z m523 -121 l0 -104 -46 -7 c-25
-3 -47 -5 -49 -3 -4 3 9 113 21 186 4 29 8 32 39 32 l35 0 0 -104z m-1370 46
c0 -17 -39 -184 -44 -189 -3 -3 -8 8 -12 23 -3 16 -22 57 -40 91 -19 34 -34
66 -34 72 0 7 25 11 65 11 36 0 65 -4 65 -8z m893 -277 c13 -144 8 -147 -55
-24 l-56 110 51 -3 52 -3 8 -80z m477 20 c0 -36 -2 -65 -4 -65 -2 0 -20 27
-39 59 -37 63 -36 69 16 70 27 1 27 0 27 -64z m-942 -202 l-3 -208 -89 -22
c-50 -12 -94 -19 -98 -17 -5 3 -36 60 -69 127 -34 67 -67 129 -75 138 -12 14
-12 25 0 83 7 37 16 69 19 72 4 5 231 30 290 33 l27 1 -2 -207z m-1159 -190
c24 -153 44 -282 45 -287 1 -9 -130 -48 -224 -67 -30 -6 -90 -22 -133 -36 -44
-13 -80 -23 -82 -21 -1 2 -32 51 -68 111 -36 59 -75 119 -86 133 -11 14 -30
55 -42 92 -12 36 -35 88 -51 116 -34 57 -89 166 -86 167 2 0 152 15 333 34
182 18 335 33 340 34 7 0 29 -113 54 -276z m-1452 15 c-4 -90 -10 -270 -13
-401 -7 -230 -8 -238 -28 -242 -12 -3 -181 -41 -376 -86 -378 -85 -459 -106
-474 -120 -6 -5 -19 -9 -30 -9 -30 0 -157 -31 -186 -45 -14 -7 -63 -18 -110
-24 -47 -7 -128 -22 -180 -35 -52 -13 -113 -27 -135 -31 -22 -3 -58 -12 -80
-20 -22 -7 -67 -18 -100 -24 -33 -7 -87 -19 -120 -27 -33 -9 -87 -20 -120 -26
-33 -6 -94 -19 -135 -30 -104 -28 -190 -47 -289 -63 -86 -15 -96 -19 -96 -38
0 -7 -8 -13 -18 -15 -10 -2 -17 3 -17 13 0 30 462 1102 483 1121 7 6 233 39
502 73 270 34 715 90 990 125 275 35 509 64 519 65 18 1 19 -6 13 -161z"/>
</g>
</svg>
