<?xml version="1.0" standalone="no"?>
<!DOCTYPE svg PUBLIC "-//W3C//DTD SVG 20010904//EN"
 "http://www.w3.org/TR/2001/REC-SVG-20010904/DTD/svg10.dtd">
<svg version="1.0" xmlns="http://www.w3.org/2000/svg"
 width="1280.000000pt" height="1280.000000pt" viewBox="0 0 1280.000000 1280.000000"
 preserveAspectRatio="xMidYMid meet">
<metadata>
Created by potrace 1.15, written by Peter Selinger 2001-2017
</metadata>
<g transform="translate(0.000000,1280.000000) scale(0.100000,-0.100000)"
fill="#000000" stroke="none">
<path d="M6350 12136 l0 -665 -42 -5 c-24 -3 -110 -8 -192 -11 -316 -11 -670
-66 -1015 -155 -1070 -279 -2028 -900 -2726 -1770 -575 -717 -954 -1595 -1080
-2500 -23 -170 -45 -431 -45 -547 l0 -103 -625 0 -625 0 0 -50 0 -50 623 -2
622 -3 2 -95 c23 -1011 357 -2020 944 -2846 774 -1089 1930 -1836 3234 -2088
221 -43 436 -66 838 -92 l87 -6 0 -574 0 -574 50 0 50 0 0 575 c0 316 3 575 8
575 75 2 392 23 467 30 948 99 1835 449 2596 1026 634 481 1138 1092 1498
1814 336 676 494 1307 537 2143 l6 117 619 0 619 0 0 50 0 50 -619 0 -618 0
-7 53 c-3 28 -6 84 -6 123 0 175 -47 538 -105 824 -146 711 -473 1430 -921
2025 -484 644 -1104 1160 -1832 1524 -610 305 -1346 499 -1997 526 -77 3 -164
8 -192 11 l-53 5 0 665 0 664 -50 0 -50 0 0 -664z m0 -1091 c0 -269 -3 -345
-12 -345 -79 -1 -381 -23 -478 -35 -1233 -154 -2335 -818 -3057 -1845 -449
-637 -737 -1455 -778 -2205 -3 -60 -8 -138 -11 -172 l-6 -63 -345 0 -346 0 7
164 c52 1274 598 2492 1522 3396 556 544 1194 937 1925 1186 465 158 1005 255
1462 262 l117 2 0 -345z m480 330 c1265 -111 2406 -663 3273 -1583 832 -883
1329 -2055 1374 -3239 l6 -173 -345 0 -346 0 -6 118 c-16 279 -47 513 -97 745
-351 1614 -1588 2900 -3189 3316 -152 39 -405 87 -560 106 -98 12 -402 34
-477 35 -10 0 -13 76 -13 345 l0 345 103 0 c56 0 181 -7 277 -15z m-480 -1094
l0 -348 -127 -7 c-778 -43 -1488 -314 -2100 -802 -140 -112 -433 -407 -549
-554 -466 -589 -731 -1269 -784 -2010 -5 -80 -10 -153 -10 -162 0 -17 -23 -18
-345 -18 l-345 0 0 93 c1 272 71 711 165 1036 300 1030 963 1904 1875 2470
637 396 1366 617 2130 644 41 2 78 4 83 5 4 1 7 -155 7 -347z m565 314 c861
-110 1600 -431 2260 -980 539 -448 977 -1056 1238 -1715 178 -450 280 -929
300 -1412 l5 -108 -348 0 -347 0 -7 123 c-23 396 -106 779 -248 1137 -417
1055 -1315 1861 -2407 2160 -248 69 -457 103 -738 122 l-173 12 0 341 c0 188
2 344 4 346 8 8 343 -11 461 -26z m-565 -1040 l0 -305 -73 0 c-91 0 -300 -24
-440 -50 -347 -66 -743 -227 -1047 -427 -778 -512 -1272 -1360 -1326 -2275
l-7 -118 -303 0 -302 0 4 83 c14 255 60 555 119 773 329 1209 1276 2161 2480
2493 279 77 528 114 863 130 l32 1 0 -305z m410 284 c1162 -112 2206 -812
2773 -1860 237 -439 376 -942 412 -1496 l7 -103 -304 0 -305 0 -6 123 c-14
281 -88 613 -198 889 -366 924 -1181 1606 -2154 1803 -143 29 -360 55 -462 55
l-73 0 0 305 0 305 103 -5 c56 -3 149 -11 207 -16z m-413 -1475 c-2 -2 -57 -8
-123 -14 -717 -63 -1340 -489 -1659 -1135 -121 -245 -174 -442 -210 -777 l-6
-58 -61 0 -61 0 6 98 c17 266 89 529 217 791 282 573 791 988 1408 1147 130
33 308 61 427 66 l60 3 3 -59 c2 -32 1 -60 -1 -62z m416 91 c437 -74 833 -275
1151 -584 395 -385 625 -885 659 -1433 l4 -58 -62 0 -61 0 -13 123 c-41 401
-192 774 -441 1087 -77 96 -255 273 -345 341 -327 250 -695 388 -1127 424
l-78 7 0 57 c0 32 2 60 4 62 8 8 213 -9 309 -26z m-413 -1224 l0 -378 -52 -6
c-82 -10 -209 -78 -283 -151 -69 -69 -126 -171 -146 -261 l-12 -55 -367 0
-368 0 5 48 c39 444 298 834 683 1031 156 80 290 121 450 140 41 5 78 9 83 10
4 0 7 -169 7 -378z m210 364 c274 -26 562 -173 769 -391 198 -209 318 -472
345 -756 l7 -68 -369 0 -368 0 -12 59 c-39 190 -219 365 -415 405 l-62 13 -3
377 -2 376 22 -4 c13 -3 52 -8 88 -11z m-210 -1015 l0 -200 -210 0 c-115 0
-210 4 -210 8 0 5 8 34 18 64 49 149 157 258 307 310 27 10 60 17 73 18 l22 0
0 -200z m187 185 c105 -31 197 -99 257 -190 35 -51 76 -151 76 -182 0 -10 -41
-13 -210 -13 l-210 0 0 200 c0 227 -7 213 87 185z m-4527 -502 c0 -71 23 -381
35 -483 87 -722 361 -1427 786 -2020 271 -380 640 -749 1018 -1019 671 -481
1460 -760 2292 -811 85 -5 166 -10 182 -10 l27 0 0 -347 0 -346 -177 6 c-989
35 -2009 399 -2818 1007 -272 204 -572 484 -792 738 -757 872 -1200 1985
-1240 3120 l-6 182 346 0 c324 0 347 -1 347 -17z m770 -20 c0 -88 22 -338 40
-462 80 -538 278 -1048 584 -1501 236 -350 597 -713 946 -953 543 -372 1154
-583 1823 -629 l177 -12 0 -349 0 -348 -67 5 c-38 3 -117 8 -178 11 -142 8
-375 39 -540 71 -1580 311 -2858 1482 -3310 3035 -97 335 -164 764 -165 1057
l0 112 345 0 345 0 0 -37z m684 -100 c34 -707 344 -1401 856 -1913 508 -509
1203 -822 1903 -857 l127 -6 0 -304 c0 -282 -1 -303 -17 -303 -59 0 -316 22
-413 35 -1138 152 -2150 870 -2674 1895 -229 448 -353 902 -386 1416 -5 82
-10 155 -10 162 0 9 67 12 303 12 l304 0 7 -137z m895 2 c44 -485 237 -910
570 -1258 350 -365 816 -582 1334 -622 l87 -7 0 -62 0 -62 -67 3 c-685 35
-1318 401 -1703 984 -203 307 -349 758 -350 1082 l0 77 59 0 58 0 12 -135z
m1496 108 c29 -141 68 -227 140 -310 72 -83 198 -153 305 -171 l45 -8 3 -358
2 -359 -67 7 c-212 22 -420 96 -599 216 -110 74 -295 263 -363 373 -103 168
-174 370 -189 545 -5 45 -6 85 -3 87 2 3 165 5 362 5 l359 0 5 -27z m495 -194
l0 -222 -42 7 c-70 10 -184 72 -243 131 -64 64 -123 177 -132 253 l-6 52 212
0 211 0 0 -221z m520 188 c0 -49 -34 -139 -75 -202 -60 -89 -139 -149 -244
-185 -109 -36 -101 -53 -101 200 l0 220 210 0 210 0 0 -33z m805 -29 c-17
-172 -61 -323 -138 -472 -199 -389 -579 -647 -1020 -692 l-67 -7 2 358 3 358
62 13 c100 20 189 70 268 149 83 82 127 162 151 276 l17 79 364 0 364 0 -6
-62z m900 -20 c-40 -556 -244 -1021 -614 -1402 -278 -285 -604 -479 -978 -581
-151 -42 -267 -63 -388 -70 -49 -3 -102 -8 -117 -10 l-28 -4 0 63 0 64 88 7
c411 32 794 177 1117 424 90 68 268 245 345 341 192 241 335 538 400 830 24
107 50 300 50 372 l0 48 65 0 65 0 -5 -82z m1371 -40 c-50 -905 -391 -1692
-1005 -2322 -621 -636 -1414 -1002 -2311 -1065 -80 -6 -153 -11 -162 -11 -17
0 -18 21 -18 305 l0 305 78 0 c254 0 655 84 939 196 584 230 1085 642 1420
1168 274 432 452 1000 453 1452 0 44 3 84 7 87 3 4 141 7 306 7 l300 0 -7
-122z m768 -5 c-23 -514 -120 -976 -301 -1433 -326 -823 -898 -1526 -1643
-2015 -181 -119 -267 -168 -446 -258 -445 -223 -907 -361 -1411 -422 -140 -17
-443 -36 -455 -28 -5 2 -8 158 -8 347 l0 343 123 7 c1321 73 2460 812 3057
1981 230 450 362 950 386 1464 l7 141 349 0 348 0 -6 -127z m763 -65 c-36
-1088 -456 -2175 -1172 -3033 -666 -798 -1566 -1378 -2560 -1648 -381 -104
-869 -177 -1187 -177 l-108 0 0 345 0 345 28 0 c179 2 501 36 721 76 955 173
1841 674 2485 1404 678 767 1051 1696 1102 2738 l7 142 345 0 345 0 -6 -192z"/>
</g>
</svg>
