<?xml version="1.0" standalone="no"?>
<!DOCTYPE svg PUBLIC "-//W3C//DTD SVG 20010904//EN"
 "http://www.w3.org/TR/2001/REC-SVG-20010904/DTD/svg10.dtd">
<svg version="1.0" xmlns="http://www.w3.org/2000/svg"
 width="1280.000000pt" height="640.000000pt" viewBox="0 0 1280.000000 640.000000"
 preserveAspectRatio="xMidYMid meet">
<metadata>
Created by potrace 1.15, written by Peter Selinger 2001-2017
</metadata>
<g transform="translate(0.000000,640.000000) scale(0.100000,-0.100000)"
fill="#000000" stroke="none">
<path d="M820 2671 c-398 -58 -692 -307 -791 -671 -20 -73 -23 -109 -23 -255
-1 -145 3 -181 21 -246 36 -126 62 -184 115 -266 128 -197 328 -334 575 -395
98 -24 292 -30 438 -14 l80 8 12 -83 c25 -182 76 -281 168 -328 44 -23 61 -26
155 -26 92 0 111 3 154 25 107 55 159 165 172 368 l7 102 -67 0 -66 0 0 -36
c0 -100 -50 -184 -110 -184 -67 0 -108 45 -158 174 l-30 76 52 31 c197 120
349 315 405 519 91 328 14 672 -202 906 -119 128 -280 222 -466 270 -105 27
-335 40 -441 25z m302 -142 c234 -78 347 -332 348 -776 0 -237 -27 -400 -92
-553 l-19 -44 -25 44 c-74 130 -170 216 -282 250 -150 47 -311 5 -376 -98 -30
-48 -48 -134 -40 -191 l6 -46 -26 37 c-134 190 -163 750 -55 1070 53 160 164
277 297 313 75 21 193 18 264 -6z m-129 -1223 c100 -30 175 -132 196 -268 l8
-47 -47 -20 c-107 -46 -250 -45 -334 2 -73 41 -107 149 -72 230 18 43 65 85
112 102 50 18 80 18 137 1z"/>
<path d="M2180 2575 l0 -65 30 0 c59 0 132 -22 164 -50 l31 -28 6 -524 c4
-287 11 -558 17 -600 35 -243 161 -387 397 -456 188 -54 487 -56 662 -3 121
36 243 130 301 231 71 123 82 226 82 772 0 444 5 498 46 569 25 43 95 78 167
86 l57 6 0 63 0 64 -355 0 -356 0 3 -62 3 -63 50 -6 c61 -8 122 -32 153 -62
65 -61 75 -152 69 -663 -5 -459 -11 -513 -67 -623 -50 -99 -122 -150 -251
-177 -88 -19 -208 -14 -288 12 -62 21 -149 94 -185 158 -42 72 -46 140 -46
712 0 523 1 540 20 572 24 40 69 60 150 69 l60 6 0 63 0 64 -460 0 -460 0 0
-65z"/>
<path d="M4911 2598 c-235 -540 -612 -1379 -641 -1428 -64 -109 -130 -163
-216 -177 l-34 -6 0 -63 0 -64 340 0 340 0 0 65 0 65 -62 0 c-85 1 -144 27
-163 74 -31 73 -19 134 61 328 l37 88 352 0 352 0 61 -167 c71 -194 76 -214
68 -248 -10 -38 -46 -55 -149 -68 -53 -7 -96 -15 -96 -19 -1 -5 -1 -33 -1 -63
l0 -55 465 0 465 0 0 63 0 62 -51 12 c-72 17 -116 48 -154 107 -35 56 -58 113
-386 958 l-224 578 -173 0 -173 0 -18 -42z m105 -448 c37 -96 97 -251 134
-345 37 -93 65 -173 63 -177 -5 -9 -573 -11 -573 -2 0 5 253 594 291 677 7 15
13 26 15 25 1 -2 32 -82 70 -178z"/>
<path d="M6140 2577 l0 -64 60 -6 c77 -9 124 -28 147 -63 17 -27 18 -66 18
-694 0 -764 5 -717 -87 -745 -28 -8 -71 -15 -95 -15 l-43 0 0 -65 0 -65 808 0
809 0 6 137 c4 75 7 241 7 370 l0 234 -62 -3 -62 -3 -22 -85 c-59 -232 -149
-384 -267 -453 -90 -53 -171 -71 -314 -72 -118 0 -134 2 -160 21 -58 43 -58
39 -58 739 0 576 2 644 17 677 22 49 53 67 140 82 l73 12 0 60 0 59 -457 3
-458 2 0 -63z"/>
<path d="M7940 2576 l0 -63 62 -7 c34 -3 78 -14 97 -24 68 -33 66 -5 66 -732
0 -526 -3 -661 -13 -687 -18 -41 -67 -64 -149 -71 l-63 -5 0 -63 0 -64 455 -2
455 -3 0 66 0 66 -58 5 c-85 8 -129 30 -150 75 -15 35 -17 95 -17 673 0 490 3
643 13 671 20 58 49 78 135 91 l77 13 0 62 0 63 -455 0 -455 0 0 -64z"/>
<path d="M9016 2533 c-3 -60 -6 -218 -7 -353 l-1 -245 57 0 58 0 32 90 c118
331 223 455 414 486 38 6 68 6 85 -1 l26 -10 0 -701 c0 -773 2 -746 -63 -784
-23 -14 -57 -20 -119 -23 l-88 -4 0 -64 0 -64 500 0 500 0 0 64 0 64 -87 4
c-101 5 -144 23 -170 71 -17 30 -18 82 -18 734 0 386 4 705 8 710 5 4 36 7 71
6 196 -5 326 -144 444 -473 l37 -105 58 -3 57 -3 0 204 c0 112 -3 272 -7 355
l-6 152 -887 0 -887 0 -7 -107z"/>
<path d="M10830 2576 l0 -63 55 -6 c74 -8 138 -41 194 -103 25 -28 151 -225
279 -437 l233 -386 -3 -245 c-3 -229 -4 -246 -24 -273 -31 -42 -87 -66 -171
-71 l-73 -5 0 -63 0 -64 485 0 c267 0 488 0 493 0 4 0 7 28 7 63 l0 62 -70 6
c-104 10 -153 33 -176 83 -16 36 -19 69 -19 277 l0 237 259 388 c143 214 273
403 290 421 49 53 108 90 161 103 l50 12 0 64 0 64 -355 0 -355 0 0 -64 0 -63
53 -6 c79 -9 122 -25 156 -56 27 -25 31 -36 31 -80 0 -74 -28 -129 -202 -389
-114 -171 -158 -229 -165 -220 -23 30 -325 541 -343 580 -50 111 5 168 164
168 l66 0 0 43 c0 23 3 52 6 65 l6 22 -516 0 -516 0 0 -64z"/>
</g>
</svg>
