<?xml version="1.0" encoding="utf-8"?>
<!-- Generator: Adobe Illustrator 25.0.1, SVG Export Plug-In . SVG Version: 6.00 Build 0)  -->
<svg version="1.1" id="Layer_1" xmlns:xodm="http://www.corel.com/coreldraw/odm/2003"
	 xmlns="http://www.w3.org/2000/svg" xmlns:xlink="http://www.w3.org/1999/xlink" x="0px" y="0px" viewBox="0 0 1031.3 130"
	 style="enable-background:new 0 0 1031.3 130;" xml:space="preserve">
<style type="text/css">
	.st0{fill:#E31E24;}
	.st1{fill-rule:evenodd;clip-rule:evenodd;fill:#393185;}
	.st2{fill:#393185;}
	.st3{fill:none;}
	.st4{fill-rule:evenodd;clip-rule:evenodd;fill:#E31E24;}
	.st5{fill-rule:evenodd;clip-rule:evenodd;fill:#FEFEFE;}
</style>
<g id="Layer_x0020_1">
	<g id="_2198928688352">
		<g>
			<path class="st0" d="M282.7,9.4l-6.6,0.4c-0.2-2-1.2-3-3.3-3c-0.8,0-1.5,0.2-1.9,0.5c-0.5,0.4-0.7,0.8-0.7,1.3
				c0,0.4,0.2,0.7,0.6,1s1.2,0.8,2.6,1.3c1.7,0.7,3.1,1.3,4.2,1.9c1.1,0.6,2,1.4,2.6,2.3c0.7,0.9,1,2.1,1,3.5c0,1.3-0.4,2.5-1.1,3.7
				c-0.7,1.1-1.8,2.1-3.2,2.8c-1.4,0.7-3.4,1.1-5.9,1.1c-3.6,0-6.2-0.7-7.7-2.1c-1.5-1.4-2.3-3.1-2.3-5.3v-0.5l6.6-0.4
				c0,1.4,0.3,2.4,0.9,3c0.6,0.6,1.5,0.9,2.6,0.9c1.1,0,2-0.2,2.6-0.7c0.6-0.5,0.9-1,0.9-1.7c0-0.5-0.2-0.9-0.6-1.3
				c-0.4-0.4-1.3-0.8-2.7-1.4c-3.3-1.2-5.5-2.3-6.3-3.3c-0.9-1-1.3-2.2-1.3-3.7c0-1.3,0.4-2.5,1.1-3.6c0.7-1.1,1.8-1.9,3.2-2.5
				c1.4-0.6,3-0.9,5-0.9C279,2.7,282.3,4.9,282.7,9.4L282.7,9.4z M309.7,3.1l-4.9,22.7h-7.1l2-9.2h-7.6l-1.9,9.2h-7.1l4.9-22.7h7.1
				l-1.7,8h7.6l1.8-8L309.7,3.1L309.7,3.1z M314.3,3.1h12.9c2.2,0,3.9,0.6,4.9,1.8c1,1.2,1.5,2.6,1.5,4.2c0,1.8-0.5,3.3-1.6,4.7
				s-2.8,2.2-5.3,2.5c1.4,1.2,3.1,4.4,5.1,9.6h-7.4c-0.6-1.6-1.3-3.5-2.2-5.4c-0.8-2-1.5-3.1-1.9-3.4c-0.4-0.3-0.9-0.5-1.5-0.5h-0.4
				l-1.9,9.2h-7.1L314.3,3.1L314.3,3.1z M319.4,12.3h1.3c2.2,0,3.7-0.1,4.3-0.3c0.7-0.2,1.2-0.6,1.5-1c0.3-0.5,0.5-1,0.5-1.4
				c0-0.6-0.2-1-0.6-1.4c-0.4-0.3-1.2-0.5-2.5-0.5h-3.6L319.4,12.3L319.4,12.3z M357.6,3.1l-1,4.9H345l-0.8,3.6h11.1l-1,4.6h-11.1
				l-1,4.4h12.5l-1.1,5.2h-19.5L339,3.1L357.6,3.1L357.6,3.1z M380.5,3.1l-1,4.9H368l-0.8,3.6h11.1l-1,4.6h-11.1l-1,4.4h12.5
				l-1.1,5.2h-19.5L362,3.1C362,3.1,380.5,3.1,380.5,3.1z"/>
			<path class="st0" d="M315.4,41.5h-2.5c-1.7,0-2.8,0.2-3.4,0.6c-0.6,0.5-1,1.3-1.2,2.5L304.2,66c0,0.1,0,0.1,0,0.1
				c-0.1,0.4-0.1,0.7-0.1,0.9c0,0.9,0.3,1.6,0.8,2.1c0.6,0.5,1.4,0.7,2.5,0.7h2.5l-0.5,2.7h-23.1l0.6-2.7h1.5c1.5,0,2.6-0.2,3.2-0.7
				c0.6-0.5,1.1-1.3,1.3-2.6l4.1-21.3l-18.2,27.3h-4.9l-6.4-27.3L263.5,66c0,0.1-0.1,0.3-0.1,0.4c0,0.1,0,0.3,0,0.5
				c0,0.9,0.2,1.6,0.8,2.2c0.5,0.5,1.3,0.8,2.3,0.8h0.5l-0.5,2.7h-20l0.6-2.7h2.4c1.5,0,2.6-0.2,3.3-0.7c0.6-0.5,1.1-1.3,1.3-2.6
				l4.2-21.3c0-0.3,0.1-0.5,0.1-0.6c0-0.2,0-0.3,0-0.4c0-0.9-0.3-1.6-0.8-2c-0.6-0.4-1.4-0.6-2.6-0.6h-2.4l0.5-2.8h21.6l5.2,18.1
				l12.7-18.1H316C316,38.8,315.4,41.5,315.4,41.5z M276.4,37h-25.2l-1.2,6.2h3.9c0.7,0,1.3,0.2,1.6,0.5c0.4,0.3,0.5,0.7,0.5,1.2
				c0,0.2,0,0.3,0,0.3c0,0.1,0,0.2-0.1,0.3l-4,20.2c-0.2,0.8-0.5,1.4-0.9,1.8c-0.5,0.4-1.2,0.5-2.1,0.5h-3.8l-1.2,6.2h24.8l1.1-6.2
				c-0.1,0-0.3,0-0.4,0.1c-0.2,0-0.4,0-0.6,0c-1,0-1.7-0.1-2.2-0.4c-0.5-0.3-0.7-0.7-0.7-1.3c0-0.2,0-0.3,0-0.4c0-0.1,0-0.2,0.1-0.3
				l1.8-9.8l4.4,18.4h7.7l13-19.3l-1.8,8.7c-0.4,1.8-0.8,2.9-1.4,3.5c-0.6,0.6-1.3,0.9-2.4,0.9h-2.4l-1.2,6.2h27.7l1.3-6.2h-3.9
				c-0.7,0-1.3-0.1-1.6-0.4c-0.4-0.3-0.5-0.7-0.5-1.3c0-0.1,0-0.3,0-0.3c0-0.1,0.1-0.2,0.1-0.3l3.9-20.1c0.2-0.8,0.5-1.4,1-1.8
				c0.5-0.4,1.2-0.6,2.2-0.6h3.7l1.2-6.2h-27.3l-10.7,15.7L276.4,37L276.4,37z M319.3,36.3l8.3,8.6l-1.4,7.4h-3.8
				c-1.1,0-1.8,0.1-2.2,0.4c-0.4,0.2-0.7,0.9-0.9,1.9l-3.1,15.8l5.4,5.5l-1.5,7.6H293l-3.4-3.4l-0.6,3.4h-7.5l-3.2-3.5l-0.4,3.5
				h-26.4l-8.3-8.7l1.4-7.5h3.8c1,0,1.8-0.1,2.2-0.4c0.4-0.2,0.7-0.9,0.9-1.9l3.1-15.8l-5.4-5.4l1.4-7.6h25.9l8.7,8.5l5.8-8.5H319.3
				L319.3,36.3z M351.8,55.7l3.7-7.2l1.4,7.2H351.8L351.8,55.7z M359.5,57.5l-3.1-14.6l-7.8,14.6H359.5z M326.6,72.5l0.5-2.7h1.6
				c1.2,0,2.2-0.3,3-0.8c0.8-0.6,1.8-1.7,2.8-3.4l15.5-26.8h17l5.5,27.1c0.3,1.6,0.8,2.7,1.3,3.2c0.6,0.5,1.5,0.8,2.9,0.8
				c0.1,0,0.1,0,0.3,0c0.1,0,0.2,0,0.3,0c0.1,0,0.2,0,0.2,0c0.1,0,0.1,0,0.1,0l-0.5,2.7h-23.3l0.6-2.7h1.8c1.6,0,2.9-0.3,3.7-0.9
				c0.8-0.6,1.3-1.5,1.3-2.8c0-0.5-0.1-1.1-0.2-1.9c-0.1-0.7-0.4-1.6-0.7-2.8h-14c-0.1,0.3-0.3,0.6-0.6,1.1
				c-1.2,2.2-1.8,3.7-1.8,4.5c0,1,0.3,1.6,1.1,2.1c0.7,0.4,1.9,0.6,3.4,0.6h0.3l-0.6,2.7H326.6L326.6,72.5z M324.3,74.3h26l1.2-6.1
				h-3.7c-0.6,0-1-0.1-1.3-0.2c-0.3-0.2-0.4-0.5-0.4-0.8c0-0.1,0-0.3,0.1-0.4c0-0.1,0.1-0.3,0.1-0.4l1.4-3.1h10.7
				c0.1,0.6,0.2,1.2,0.3,1.8c0.1,0.6,0.1,1.1,0.1,1.6c0,0.6-0.2,1-0.5,1.2c-0.3,0.3-0.8,0.4-1.6,0.4h-4.3l-1.3,6.1h28.1l1.2-6.1
				h-2.1c-1.3,0-2.1-0.1-2.5-0.4c-0.4-0.3-0.7-1-0.9-2L369,37h-20.5l-16.2,28.5c-0.6,1.2-1.3,1.9-1.9,2.2c-0.6,0.3-1.7,0.5-3.1,0.5
				h-1.8L324.3,74.3L324.3,74.3z M323.6,74.9l1.3-7.6c0.7,0,1.4,0,2.2,0.1c0.2,0,0.3,0,0.3,0c1.3,0,2.3-0.1,2.8-0.4
				c0.5-0.3,1.1-1.1,1.9-2.5l16-28.1h21.6l11.4,11.4l5.3,24.5l2.8,2.5l-1.8,8.7h-54.8L323.6,74.9z M428.9,37h-31l-1.3,6.2h3.9
				c0.7,0,1.3,0.2,1.6,0.5c0.4,0.3,0.5,0.7,0.5,1.2c0,0.2,0,0.3,0,0.3c0,0.1,0,0.2-0.1,0.3l-4,20.2c-0.2,0.8-0.5,1.4-1,1.8
				c-0.5,0.4-1.2,0.5-2.1,0.5h-3.8l-1.2,6.2h28.8l1.2-6.2h-3.9c-0.7,0-1.3-0.1-1.6-0.4c-0.4-0.3-0.5-0.7-0.5-1.3c0-0.1,0-0.3,0-0.3
				c0-0.1,0-0.2,0.1-0.3l1.1-5.9h6.3c1.1,0,2,0.2,2.6,0.7c0.6,0.4,0.9,1.1,0.9,1.9c0,0.2-0.1,0.4-0.1,0.7c0,0.1,0,0.1,0,0.2l-1,5.3
				c-0.1,0.4-0.1,0.7-0.2,1.1c0,0.4-0.1,0.7-0.1,1c0,1.2,0.5,2.2,1.4,2.8c1,0.6,2.5,0.9,4.4,0.9h13.7l1-6.3c-0.1,0-0.2,0-0.3,0
				c-0.6,0.1-1,0.1-1.3,0.1c-0.9,0-1.5-0.1-2-0.4c-0.4-0.3-0.6-0.6-0.6-1.2c0-0.2,0-0.3,0.1-0.5c0-0.2,0-0.4,0-0.5l0.4-4.4v-0.3
				c0-1.1-0.4-2.1-1.2-2.8c-0.8-0.8-1.9-1.3-3.3-1.6c2.5-0.4,4.5-1.4,5.9-3c1.4-1.6,2.2-3.7,2.2-6.3c0.1-3.5-1.2-6.1-3.7-7.7
				C438.4,37.8,434.4,37,428.9,37L428.9,37z M418.9,44.2h4.7c1.6,0,2.8,0.3,3.5,0.7c0.7,0.5,1,1.3,1,2.4c0,1.8-0.6,3-1.5,3.8
				c-1,0.8-2.6,1.2-4.7,1.2h-4.7L418.9,44.2L418.9,44.2z M417,42.4l-2.5,11.8h6.9c3.1,0,5.4-0.6,6.9-1.8c1.4-1.2,2.2-3,2.2-5.6
				c0.1-1.6-0.5-2.7-1.4-3.4c-1-0.7-2.7-1.1-5.1-1.1L417,42.4L417,42.4z M428.2,38.8c5.4,0,9.1,0.6,11.2,1.9c2.1,1.3,3.1,3.4,3,6.5
				c-0.1,2.4-0.8,4.4-2.3,5.9c-1.5,1.5-3.7,2.6-6.6,3.3c2.2,0.6,3.7,1.2,4.3,1.9c0.7,0.6,1,1.5,1,2.7c0,0.2,0,0.4-0.1,0.9
				c-0.1,0.2-0.1,0.4-0.1,0.4l-0.4,3.3c0,0.2-0.1,0.5-0.1,0.8c0,0.3-0.1,0.5-0.1,0.6c0,1.1,0.3,1.8,0.9,2.3c0.6,0.5,1.7,0.7,3.3,0.7
				h0.3l-0.5,2.7h-11.6c-1.9,0-3.1-0.2-3.7-0.6c-0.6-0.4-0.9-1-0.9-2c0-0.2,0-0.4,0.1-0.7c0.1-0.3,0.1-0.6,0.2-1l0.9-4.6
				c0.1-0.4,0.1-0.7,0.2-1c0.1-0.3,0.1-0.6,0.1-0.9c0-1.2-0.4-2.2-1.4-2.9c-0.9-0.7-2.2-1-3.9-1h-8.3l-1.6,8c0,0.1,0,0.1,0,0.1
				c-0.1,0.4-0.1,0.7-0.1,0.9c0,0.9,0.3,1.6,0.8,2.1c0.6,0.5,1.5,0.7,2.6,0.7h2.4l-0.5,2.7h-24.1l0.6-2.7h2.4c1.5,0,2.6-0.2,3.3-0.7
				s1.1-1.3,1.3-2.6l4.2-21.3c0-0.2,0.1-0.4,0.1-0.5c0-0.2,0-0.3,0-0.4c0-1-0.3-1.7-0.8-2.2c-0.6-0.5-1.4-0.8-2.6-0.8h-2.4l0.6-2.6
				L428.2,38.8L428.2,38.8z M430.1,36.3c3.1,0,5.7,0.3,7.9,1c2.2,0.6,4.2,1.7,6,3.1c2.7,2.2,4.9,4.6,6.6,7.5
				c1.7,2.8,2.6,5.3,2.5,7.3c0,1.7-0.5,3.5-1.4,5.2c-0.9,1.8-2.3,3.5-4.1,5.3c0.6,0.6,1,1.1,1.2,1.6s0.4,1.1,0.4,1.7
				c0,0.4-0.1,0.8-0.3,1.2c-0.2,0.4-0.4,0.8-0.8,1.2l5.6,5.6l-1.1,6.3h-15.1c-1.4,0-2.9-0.9-4.6-2.6c-0.5-0.5-0.8-0.9-1.1-1.1
				l-2.4-2.3l-1.2,6h-29.8l-8.3-8.5l1.4-7.5h3.8c1,0,1.8-0.1,2.2-0.4c0.4-0.2,0.7-0.9,0.9-1.9l3.1-15.8l-5.4-5.5l1.4-7.5L430.1,36.3
				L430.1,36.3z M485.9,67.8c1.6-0.3,2.7-0.9,3.5-1.8c0.8-0.9,1.4-2.4,1.8-4.6l1.7-8.6c-1.5,0.2-2.6,0.7-3.4,1.5
				c-0.8,0.9-1.3,2.2-1.7,4L485.9,67.8z M465.8,57.2l2.2-11.9c0.1-0.3,0.1-0.5,0.1-0.6c0-0.1,0-0.3,0.1-0.4c0-1-0.3-1.7-0.9-2.2
				c-0.6-0.5-1.5-0.8-2.6-0.8h-2.3l0.5-2.6h23.9l-0.5,2.6h-2.5c-1.5,0-2.6,0.3-3.2,0.7c-0.6,0.5-1.1,1.3-1.3,2.6L475.9,62
				c-0.1,0.4-0.1,0.8-0.2,1.2c-0.1,0.4-0.1,0.8-0.1,1.2c0,1.9,0.7,3.4,2.1,4.4c1.4,1,3.6,1.5,6.5,1.5c3,0,5.2-0.6,6.7-1.9
				c1.5-1.3,2.6-3.5,3.2-6.5l3.1-16.5c0.1-0.3,0.1-0.5,0.1-0.6c0-0.1,0-0.3,0-0.4c0-1-0.3-1.7-0.9-2.2c-0.6-0.5-1.4-0.8-2.6-0.8
				h-2.3l0.5-2.6h23.9l-0.5,2.6h-2.5c-1.5,0-2.6,0.3-3.2,0.7c-0.6,0.5-1.1,1.3-1.3,2.6l-2.4,12.2c-0.7,3.5-1.4,6.1-2.3,7.8
				c-0.8,1.7-1.9,3.1-3.3,4.2c-1.9,1.4-4.1,2.5-6.6,3.1c-2.6,0.7-5.7,1-9.5,1c-6.5,0-11.3-1-14.5-2.9c-3.2-1.9-4.8-4.8-4.7-8.7
				c0-0.5,0.1-1.1,0.2-1.9C465.4,58.8,465.6,58,465.8,57.2L465.8,57.2z M463.4,58.8c-0.1,0.5-0.2,1-0.2,1.5
				c-0.1,0.5-0.1,0.9-0.1,1.4c-0.1,4.3,1.6,7.6,5.1,9.7c3.5,2.2,8.7,3.2,15.7,3.2c4.1,0,7.5-0.3,10.2-0.8c2.6-0.5,4.9-1.3,6.7-2.5
				c2-1.2,3.6-2.7,4.7-4.5c1.1-1.8,2.1-5.1,3-9.9l2.2-11.4c0.2-0.8,0.5-1.4,1-1.8c0.5-0.4,1.2-0.6,2.2-0.6h3.7l1.2-6.2h-28.4
				l-1.3,6.2h3.7c0.7,0,1.3,0.2,1.6,0.5c0.4,0.3,0.6,0.7,0.5,1.2c0,0.2,0,0.3,0,0.4c0,0.1-0.1,0.2-0.1,0.3l-3,15.9
				c-0.5,2.7-1.3,4.5-2.4,5.5c-1.1,1-2.8,1.5-5.1,1.5c-2.1,0-3.6-0.4-4.7-1.1c-1-0.8-1.5-1.9-1.5-3.4c0-0.2,0-0.5,0.1-0.8
				c0-0.4,0.1-0.8,0.2-1.3l3.3-16.1c0.2-0.8,0.5-1.4,1-1.8c0.5-0.4,1.2-0.5,2.1-0.5h3.6l1.3-6.2H461l-1.3,6.2h3.9
				c0.7,0,1.3,0.2,1.7,0.6c0.4,0.4,0.6,0.9,0.6,1.5c0,0.2,0,0.3,0,0.3c0,0.1,0,0.2-0.1,0.3L463.4,58.8z M465.8,70.3
				c-1.1-1.2-2-2.4-2.5-3.8c-0.5-1.3-0.8-2.9-0.7-4.6c0-0.6,0-1.1,0.1-1.4c0-0.3,0.1-0.5,0.1-0.8l2-10.8l-5.5-5.5l1.4-7.1h59
				l8.4,8.5l-1.5,7.5h-3.8c-1.1,0-1.8,0.1-2.2,0.4c-0.4,0.3-0.7,0.9-0.9,2l-2.2,10.9c-0.1,0.2-0.1,0.5-0.2,1
				c-1.3,6.4-3.4,10.8-6.5,13c-1.9,1.4-4.3,2.5-7.1,3.2c-2.8,0.7-6.4,1-10.6,1c-5.3,0-9.3-0.4-12.1-1.1c-2.8-0.8-5.1-2-6.8-3.8
				L465.8,70.3L465.8,70.3z M577.5,38.8l-2.2,11h-7.3c0.1-1.1,0.2-1.9,0.3-2.6c0.1-0.7,0.1-1.3,0.1-1.7c0-1.4-0.4-2.4-1.2-3
				c-0.9-0.6-2.4-0.9-4.5-0.9h-3.5L554.3,66c-0.1,0.3-0.1,0.5-0.1,0.6c0,0.2-0.1,0.3-0.1,0.4c0,0.9,0.3,1.6,0.9,2.2
				c0.6,0.5,1.4,0.7,2.6,0.7h2.4l-0.5,2.7h-24l0.6-2.7h2.4c1.5,0,2.6-0.2,3.3-0.7c0.6-0.5,1.1-1.3,1.3-2.6l4.9-25h-3.2
				c-2.3,0-4,0.6-5.2,1.9s-2,3.4-2.6,6.4h-5.5l2.1-11L577.5,38.8L577.5,38.8z M580.1,37h-48.5l-3,15.3h10.2c0.6-3.2,1.3-5.5,2.2-6.7
				c0.9-1.2,2.2-1.9,4-2l-4.1,22.2c-0.2,0.8-0.5,1.4-1,1.8c-0.5,0.4-1.2,0.5-2.1,0.5H534l-1.2,6.2h28.8l1.2-6.2h-3.8
				c-0.7,0-1.3-0.1-1.6-0.4c-0.4-0.3-0.5-0.7-0.5-1.3c0-0.1,0-0.3,0-0.3c0-0.1,0.1-0.2,0.1-0.3l4.4-22.5h0.4c1.9,0,3.1,0.3,3.7,0.8
				c0.6,0.5,0.9,1.5,0.9,3c0,0.5-0.1,1.8-0.3,3.9c-0.1,0.6-0.1,1-0.1,1.3h11.2L580.1,37L580.1,37z M580.3,36.3l8.5,8.5l-3.4,16.4
				h-10.7l-5.4-5.2l-2.9,14.4l5.3,5.5l-1.5,7.4h-29.8l-8.3-8.5l1.4-7.5h3.8c1,0,1.8-0.1,2.1-0.3c0.4-0.2,0.7-0.9,0.9-2l0.8-3.9h-4.7
				l-8.5-8.5l3-16.5L580.3,36.3L580.3,36.3z M621.9,36.3l8.4,8.5l-1.5,7.5h-3.8c-1.1,0-1.8,0.1-2.2,0.4c-0.4,0.3-0.7,0.9-0.9,1.9
				l-3,15.8l5.4,5.5l-1.5,7.4h-29.8l-8.3-8.5l1.4-7.5h3.8c1.1,0,1.8-0.1,2.2-0.4c0.4-0.2,0.7-0.9,0.9-1.9l3.1-15.8l-5.4-5.5l1.4-7.5
				H621.9L621.9,36.3z M621.3,37h-28.7l-1.3,6.2h3.9c0.7,0,1.3,0.2,1.6,0.5c0.4,0.3,0.5,0.7,0.5,1.2c0,0.2,0,0.3,0,0.3
				c0,0.1,0,0.2-0.1,0.3l-4,20.2c-0.2,0.8-0.5,1.4-1,1.8c-0.5,0.4-1.2,0.5-2.1,0.5h-3.8l-1.2,6.2h28.8l1.2-6.2h-3.9
				c-0.7,0-1.3-0.1-1.6-0.4c-0.4-0.3-0.5-0.7-0.5-1.3c0-0.1,0-0.3,0-0.3c0-0.1,0-0.2,0.1-0.3l3.9-20.1c0.2-0.8,0.5-1.4,1-1.8
				c0.5-0.4,1.2-0.6,2.1-0.6h3.7C620.1,43.2,621.3,37,621.3,37z M618.1,41.4h-2.5c-1.5,0-2.6,0.3-3.3,0.7c-0.7,0.5-1.1,1.3-1.3,2.6
				L606.9,66c-0.1,0.3-0.1,0.5-0.1,0.6c0,0.2,0,0.3,0,0.4c0,0.9,0.3,1.6,0.9,2.2c0.6,0.5,1.5,0.7,2.6,0.7h2.4l-0.5,2.7H588l0.6-2.7
				h2.4c1.5,0,2.6-0.2,3.2-0.7c0.6-0.5,1.1-1.3,1.3-2.6l4.2-21.3c0-0.2,0.1-0.4,0.1-0.5c0-0.2,0-0.3,0-0.4c0-1-0.3-1.7-0.8-2.2
				c-0.6-0.5-1.4-0.8-2.6-0.8h-2.4l0.5-2.6h24L618.1,41.4L618.1,41.4z M689,36.3l8.3,8.5l-1.5,7.5h-3.8c-1.1,0-1.8,0.1-2.2,0.4
				c-0.4,0.3-0.7,0.9-0.9,1.9l-5.7,29h-15.5l-4.9-5.2l-1,5.2h-27.7l-8.3-8.7l1.4-7.5h3.8c1,0,1.8-0.1,2.2-0.4
				c0.4-0.2,0.7-0.9,0.9-1.9l3.1-15.8l-5.4-5.5l1.4-7.5h23.1l4.1,4.3l0.8-4.3H689L689,36.3z M665.8,53.5L656.2,37h-22.3l-1.2,6.2
				h3.9c0.7,0,1.3,0.2,1.6,0.5c0.4,0.3,0.5,0.7,0.5,1.2c0,0.2,0,0.3,0,0.3c0,0.1,0,0.2-0.1,0.3l-4,20.2c-0.2,0.8-0.5,1.4-0.9,1.8
				c-0.5,0.4-1.2,0.5-2.1,0.5h-3.8l-1.2,6.2H653L654,68h-3.1c-1.2,0-2-0.1-2.4-0.3c-0.4-0.2-0.5-0.6-0.5-1.2c0-0.3,0.2-1.1,0.4-2.3
				l0-0.2l1.2-6.3l9.5,16.6h15.7l5.5-28.8c0.2-0.8,0.5-1.4,0.9-1.8c0.5-0.4,1.2-0.6,2.1-0.6h3.8l1.2-6.2H662l-1.2,6.2h2.7
				c1.1,0,2,0.3,2.6,0.8c0.6,0.5,0.9,1.3,0.9,2.3c0,0.2-0.1,0.4-0.1,0.8c0,0.1,0,0.1,0,0.1L665.8,53.5z M666.9,60.1l2.4-14.9
				c0-0.1,0-0.2,0-0.3c0-0.1,0-0.3,0-0.6c0-1-0.2-1.8-0.8-2.2c-0.6-0.5-1.4-0.7-2.5-0.7h-2.4l0.5-2.6h21.5l-0.5,2.6h-2.5
				c-1.5,0-2.6,0.3-3.3,0.7c-0.6,0.5-1.1,1.3-1.3,2.6l-5.4,27.8h-11.6l-12.5-21.3l-3,14.8c0,0.3-0.1,0.5-0.1,0.7s0,0.3,0,0.4
				c0,0.9,0.3,1.6,0.8,2.1c0.6,0.5,1.4,0.7,2.5,0.7h2.5l-0.5,2.7h-21.5l0.6-2.7h2.4c1.5,0,2.6-0.2,3.3-0.7c0.6-0.5,1.1-1.3,1.3-2.6
				l4.2-21.3c0-0.2,0.1-0.4,0.1-0.5c0-0.2,0-0.3,0-0.4c0-1-0.3-1.7-0.8-2.2c-0.6-0.5-1.4-0.8-2.6-0.8h-2.4l0.5-2.6h18.4
				C654.3,38.8,666.9,60.1,666.9,60.1z M721.4,55.7l3.7-7.2l1.4,7.2H721.4z M729.2,57.5l-3.1-14.6l-7.8,14.6H729.2z M696.3,72.5
				l0.5-2.7h1.6c1.2,0,2.2-0.3,3-0.8c0.8-0.6,1.8-1.7,2.8-3.4l15.5-26.8h17l5.5,27.1c0.3,1.6,0.8,2.7,1.3,3.2
				c0.6,0.5,1.5,0.8,2.8,0.8c0.1,0,0.2,0,0.3,0c0.1,0,0.2,0,0.2,0c0.1,0,0.2,0,0.2,0c0.1,0,0.1,0,0.1,0l-0.5,2.7h-23.3l0.6-2.7h1.8
				c1.6,0,2.9-0.3,3.7-0.9c0.8-0.6,1.3-1.5,1.3-2.8c0-0.5-0.1-1.1-0.2-1.9c-0.2-0.7-0.4-1.6-0.7-2.8H716c-0.1,0.3-0.3,0.6-0.6,1.1
				c-1.1,2.2-1.7,3.7-1.8,4.5c0,1,0.3,1.6,1,2.1c0.7,0.4,1.9,0.6,3.4,0.6h0.4l-0.6,2.7C717.8,72.5,696.3,72.5,696.3,72.5z
				 M693.9,74.3h26l1.3-6.1h-3.7c-0.6,0-1-0.1-1.3-0.2c-0.3-0.2-0.4-0.5-0.4-0.8c0-0.1,0-0.3,0.1-0.4c0-0.1,0.1-0.3,0.1-0.4l1.4-3.1
				H728c0.2,0.6,0.3,1.2,0.3,1.8s0.1,1.1,0.1,1.6c0,0.6-0.2,1-0.5,1.2c-0.3,0.3-0.8,0.4-1.6,0.4H722l-1.3,6.1h28.1l1.2-6.1h-2.1
				c-1.3,0-2.1-0.1-2.5-0.4c-0.4-0.3-0.7-1-0.9-2L738.6,37h-20.5l-16.2,28.5c-0.7,1.2-1.3,1.9-1.9,2.2c-0.6,0.3-1.6,0.5-3.1,0.5
				h-1.8C695.1,68.1,693.9,74.3,693.9,74.3z M693.3,74.9l1.3-7.6c0.7,0,1.4,0,2.2,0.1c0.2,0,0.3,0,0.3,0c1.3,0,2.3-0.1,2.8-0.4
				c0.5-0.3,1.1-1.1,1.9-2.5l16-28.1h21.6l11.4,11.4l5.3,24.5l2.8,2.5l-1.8,8.7h-54.8L693.3,74.9L693.3,74.9z M822.7,36.3l8.3,8.5
				l-1.5,7.5h-3.8c-1.1,0-1.8,0.1-2.2,0.4c-0.4,0.3-0.7,0.9-0.9,1.9l-5.7,29h-15.5l-4.9-5.2l-1,5.2h-27.7l-8.3-8.7l1.4-7.5h3.8
				c1,0,1.8-0.1,2.2-0.4c0.4-0.2,0.7-0.9,0.9-1.9l3.1-15.8l-5.4-5.5l1.4-7.5h23.1l4.1,4.3l0.8-4.3H822.7L822.7,36.3z M799.4,53.5
				L789.9,37h-22.3l-1.2,6.2h3.9c0.7,0,1.3,0.2,1.6,0.5c0.4,0.3,0.5,0.7,0.5,1.2c0,0.2,0,0.3,0,0.3c0,0.1,0,0.2-0.1,0.3l-4,20.2
				c-0.2,0.8-0.5,1.4-0.9,1.8c-0.5,0.4-1.2,0.5-2.1,0.5h-3.8l-1.2,6.2h26.4l1.1-6.2h-3.1c-1.2,0-2-0.1-2.4-0.3
				c-0.4-0.2-0.5-0.6-0.5-1.2c0-0.3,0.2-1.1,0.4-2.3l0-0.2l1.2-6.3l9.5,16.6h15.7l5.5-28.8c0.2-0.8,0.5-1.4,0.9-1.8
				c0.5-0.4,1.2-0.6,2.1-0.6h3.8L822,37h-26.4l-1.2,6.2h2.7c1.1,0,2,0.3,2.6,0.8c0.6,0.5,0.9,1.3,0.9,2.3c0,0.2-0.1,0.4-0.1,0.8
				c0,0.1,0,0.1,0,0.1L799.4,53.5z M800.5,60.1l2.4-14.9c0-0.1,0-0.2,0-0.3c0-0.1,0-0.3,0-0.6c0-1-0.2-1.8-0.8-2.2
				c-0.6-0.5-1.4-0.7-2.5-0.7h-2.4l0.5-2.6h21.5l-0.5,2.6h-2.5c-1.5,0-2.6,0.3-3.3,0.7c-0.6,0.5-1.1,1.3-1.3,2.6l-5.4,27.8h-11.6
				l-12.5-21.3l-3,14.8c0,0.3-0.1,0.5-0.1,0.7c0,0.2,0,0.3-0.1,0.4c0,0.9,0.3,1.6,0.8,2.1c0.6,0.5,1.4,0.7,2.6,0.7h2.5l-0.5,2.7H763
				l0.6-2.7h2.4c1.5,0,2.6-0.2,3.3-0.7c0.6-0.5,1.1-1.3,1.3-2.6l4.2-21.3c0-0.2,0.1-0.4,0.1-0.5c0-0.2,0-0.3,0-0.4
				c0-1-0.3-1.7-0.8-2.2c-0.6-0.5-1.4-0.8-2.6-0.8H769l0.5-2.6h18.4L800.5,60.1L800.5,60.1z M862.9,41.4h-9.3l-5.5,28.4h9.1
				c3.1,0,5.4-0.5,6.8-1.6c1.4-1.1,2.4-2.9,2.8-5.6l2.7-13.6c0.1-0.4,0.2-0.7,0.2-1.1c0.1-0.4,0.1-0.7,0.1-1.1
				c0-1.9-0.5-3.3-1.6-4.2C867.1,41.8,865.3,41.4,862.9,41.4L862.9,41.4z M861.7,43.2c2,0,3.4,0.4,4.3,1c0.9,0.7,1.3,1.8,1.2,3.3
				c0,0.3,0,0.6-0.1,1c-0.1,0.4-0.1,0.8-0.2,1.3l-2.3,11.9c-0.5,2.4-1.2,4-2.4,4.9c-1.1,0.9-3,1.4-5.8,1.4h-5.5l4.8-24.8
				C855.7,43.2,861.7,43.2,861.7,43.2z M859.8,67.1c1.2-0.4,2.1-0.9,2.7-1.6c0.6-0.8,1.1-2,1.4-3.8l1.8-9.4h-3.1L859.8,67.1
				L859.8,67.1z M868.4,38.8c4.1,0,7.1,0.9,9.1,2.7c2,1.8,2.9,4.6,2.8,8.2c-0.1,4.7-0.7,8.8-1.9,12.3c-1.2,3.5-2.7,6-4.8,7.6
				c-1.3,1-2.8,1.8-4.5,2.2c-1.8,0.5-4.1,0.7-7,0.7H830l0.6-2.7h2.4c1.5,0,2.6-0.2,3.2-0.7s1.1-1.3,1.3-2.6l4.2-21.3
				c0-0.2,0.1-0.4,0.1-0.5c0-0.2,0.1-0.3,0.1-0.4c0-1-0.3-1.7-0.9-2.2c-0.6-0.5-1.4-0.8-2.6-0.8H836l0.5-2.6L868.4,38.8L868.4,38.8z
				 M869.4,37h-34.8l-1.3,6.2h3.9c0.7,0,1.3,0.2,1.6,0.5c0.4,0.3,0.6,0.7,0.5,1.2c0,0.2,0,0.3,0,0.3c0,0.1-0.1,0.2-0.1,0.3l-4,20.2
				c-0.2,0.8-0.5,1.4-1,1.8c-0.5,0.4-1.2,0.5-2.1,0.5h-3.8l-1.2,6.2h35.2c3.1,0,5.5-0.2,7.1-0.5c1.6-0.3,3-0.8,4.3-1.5
				c2.6-1.5,4.7-4.3,6.3-8.4c1.6-4.1,2.4-8.8,2.5-14.3c0.1-4.3-0.9-7.5-3.1-9.5C877.4,38,874,37,869.4,37z M869.4,36.3
				c2.9,0,5.1,0.3,6.7,0.8s3,1.4,4.2,2.7l8.3,8.6c1.1,1.1,1.8,2.4,2.3,3.8c0.5,1.5,0.7,3.2,0.7,5.2c-0.1,5.6-0.9,10.4-2.3,14.4
				c-1.4,4-3.3,7-5.8,8.8c-1.4,1-2.9,1.7-4.7,2.2c-1.8,0.4-4.5,0.7-8,0.7h-35.8l-8.3-8.5l1.4-7.5h3.8c1.1,0,1.8-0.1,2.2-0.4
				c0.4-0.2,0.7-0.9,0.9-1.9l3.1-15.8l-5.4-5.5l1.4-7.5L869.4,36.3L869.4,36.3z M918.6,55.7l3.7-7.2l1.4,7.2H918.6z M926.3,57.5
				l-3.1-14.6l-7.8,14.6H926.3z M893.4,72.5l0.5-2.7h1.6c1.2,0,2.2-0.3,3-0.8c0.8-0.6,1.8-1.7,2.8-3.4l15.5-26.8h17l5.5,27.1
				c0.3,1.6,0.8,2.7,1.3,3.2c0.6,0.5,1.5,0.8,2.9,0.8c0.1,0,0.1,0,0.3,0c0.1,0,0.2,0,0.3,0c0.1,0,0.1,0,0.2,0c0.1,0,0.1,0,0.1,0
				l-0.5,2.7h-23.3l0.6-2.7h1.8c1.6,0,2.9-0.3,3.7-0.9c0.8-0.6,1.3-1.5,1.3-2.8c0-0.5-0.1-1.1-0.2-1.9c-0.1-0.7-0.4-1.6-0.7-2.8h-14
				c-0.1,0.3-0.3,0.6-0.6,1.1c-1.2,2.2-1.8,3.7-1.8,4.5c0,1,0.3,1.6,1.1,2.1c0.7,0.4,1.9,0.6,3.4,0.6h0.3l-0.6,2.7L893.4,72.5
				L893.4,72.5z M891,74.3h26l1.2-6.1h-3.7c-0.6,0-1-0.1-1.3-0.2c-0.3-0.2-0.4-0.5-0.4-0.8c0-0.1,0-0.3,0.1-0.4
				c0-0.1,0.1-0.3,0.1-0.4l1.4-3.1h10.7c0.1,0.6,0.2,1.2,0.3,1.8c0.1,0.6,0.1,1.1,0.1,1.6c0,0.6-0.2,1-0.5,1.2
				c-0.3,0.3-0.8,0.4-1.6,0.4h-4.3l-1.3,6.1h28.1l1.2-6.1H945c-1.3,0-2.1-0.1-2.5-0.4c-0.4-0.3-0.7-1-0.9-2L935.8,37h-20.5
				l-16.2,28.5c-0.6,1.2-1.3,1.9-1.9,2.2c-0.6,0.3-1.7,0.5-3.1,0.5h-1.8L891,74.3L891,74.3z M890.4,74.9l1.3-7.6
				c0.7,0,1.4,0,2.2,0.1c0.2,0,0.3,0,0.3,0c1.3,0,2.3-0.1,2.8-0.4c0.5-0.3,1.1-1.1,1.9-2.5l16-28.1h21.6L948,47.7l5.3,24.5l2.8,2.5
				l-1.8,8.7h-54.8L890.4,74.9L890.4,74.9z"/>
			<path class="st0" d="M1019.8,36.3l8.3,8.5l-1.4,7.5h-3.8c-1.1,0-1.8,0.1-2.2,0.4c-0.4,0.3-0.7,0.9-0.9,1.9l-5.7,29h-15.4l-5-5.2
				l-1,5.2H965l-8.3-8.7l1.4-7.5h3.8c1,0,1.8-0.1,2.2-0.4c0.4-0.2,0.7-0.9,0.9-1.9l3.1-15.8l-5.4-5.5l1.4-7.5h23.1l4.1,4.3l0.8-4.3
				C992.2,36.3,1019.8,36.3,1019.8,36.3z M996.6,53.5L987,37h-22.3l-1.3,6.2h3.9c0.7,0,1.3,0.2,1.6,0.5c0.4,0.3,0.5,0.7,0.5,1.2
				c0,0.2,0,0.3,0,0.3c0,0.1,0,0.2-0.1,0.3l-4,20.2c-0.2,0.8-0.5,1.4-1,1.8c-0.5,0.4-1.2,0.5-2.1,0.5h-3.8l-1.2,6.2h26.4l1-6.2h-3.1
				c-1.2,0-2-0.1-2.4-0.3c-0.3-0.2-0.5-0.6-0.5-1.2c0-0.3,0.2-1.1,0.4-2.3l0-0.2l1.2-6.3l9.5,16.6h15.7l5.5-28.8
				c0.2-0.8,0.5-1.4,0.9-1.8c0.5-0.4,1.2-0.6,2.1-0.6h3.8l1.2-6.2h-26.4l-1.2,6.2h2.7c1.1,0,2,0.3,2.6,0.8c0.6,0.5,0.9,1.3,0.9,2.3
				c0,0.2-0.1,0.4-0.1,0.8c0,0.1,0,0.1,0,0.1L996.6,53.5L996.6,53.5z M997.6,60.1l2.4-14.9c0-0.1,0-0.2,0-0.3c0-0.1,0-0.3,0.1-0.6
				c0-1-0.3-1.8-0.8-2.2c-0.5-0.5-1.4-0.7-2.5-0.7h-2.3l0.5-2.6h21.5l-0.5,2.6h-2.5c-1.5,0-2.6,0.3-3.2,0.7
				c-0.6,0.5-1.1,1.3-1.3,2.6l-5.4,27.8h-11.6l-12.5-21.3l-3,14.8c-0.1,0.3-0.1,0.5-0.1,0.7c0,0.2,0,0.3,0,0.4
				c0,0.9,0.3,1.6,0.8,2.1c0.6,0.5,1.4,0.7,2.5,0.7h2.5l-0.5,2.7h-21.5l0.6-2.7h2.4c1.5,0,2.6-0.2,3.3-0.7c0.6-0.5,1.1-1.3,1.3-2.6
				l4.2-21.3c0-0.2,0.1-0.4,0.1-0.5c0-0.2,0-0.3,0-0.4c0-1-0.3-1.7-0.8-2.2c-0.6-0.5-1.4-0.8-2.6-0.8h-2.4l0.6-2.6h18.3
				C985.1,38.8,997.6,60.1,997.6,60.1z"/>
			<path class="st0" d="M250.4,113.2l-1.1,5.4H231l4.8-22.1h7.1l-3.7,16.7H250.4L250.4,113.2z M276.3,96.2c3.5,0,6,0.9,7.6,2.7
				c1.6,1.8,2.4,4,2.4,6.6c0,1-0.2,2.2-0.5,3.5c-0.3,1.3-0.9,2.6-1.7,4c-0.9,1.4-2,2.6-3.3,3.6c-1.4,1-2.7,1.6-3.9,1.9
				c-1.3,0.3-2.6,0.5-4,0.5c-3.2,0-5.8-0.8-7.6-2.4c-1.8-1.6-2.7-3.8-2.7-6.7c0-1.5,0.2-3,0.7-4.4c0.5-1.4,1.1-2.8,2-4.1
				c0.9-1.3,2-2.3,3.3-3.2c1.3-0.9,2.6-1.4,3.8-1.7C273.7,96.3,275,96.2,276.3,96.2z M273.3,114c1.3,0,2.5-0.5,3.5-1.5
				c0.9-1,1.6-2.3,2.1-3.8c0.4-1.5,0.7-2.6,0.7-3.2c0-1.4-0.4-2.5-1.1-3.2c-0.7-0.7-1.7-1.1-2.8-1.1c-1.3,0-2.4,0.5-3.3,1.4
				c-0.9,0.9-1.6,2.1-2.1,3.6c-0.5,1.5-0.7,2.8-0.7,3.9c0,1.1,0.4,2.1,1,2.8C271.2,113.6,272.1,114,273.3,114L273.3,114z
				 M323.4,102.9l-6.9,0.7c-0.6-1.8-1.9-2.6-3.8-2.6c-1.9,0-3.4,0.9-4.5,2.8c-1.1,1.9-1.7,3.9-1.7,6c0,1.2,0.4,2.3,1.2,3.1
				c0.8,0.8,1.9,1.2,3.1,1.2h0.1c1.4,0,2.7-0.4,3.8-1.1l0.5-2.4H311l1-4.6h10.6l-2.3,10.4c-3.5,1.7-7,2.6-10.5,2.6
				c-3.1,0-5.6-0.8-7.4-2.5c-1.8-1.6-2.7-4-2.7-7c0-2.5,0.6-4.8,1.8-6.9c1.2-2.1,2.8-3.7,4.9-4.8c2.1-1.1,4.5-1.7,7.3-1.7
				C319,96.2,322.3,98.4,323.4,102.9L323.4,102.9z M347.5,96.5l-4.8,22.1h-7.1l4.8-22.1H347.5z M380.7,102.7l-6.5,0.3
				c-0.2-1.9-1.2-2.9-3.3-2.9c-0.8,0-1.5,0.2-1.9,0.5c-0.5,0.4-0.7,0.8-0.7,1.2c0,0.4,0.2,0.7,0.5,1c0.4,0.3,1.2,0.7,2.6,1.2
				c1.7,0.6,3.1,1.2,4.2,1.8c1.1,0.6,1.9,1.3,2.6,2.2c0.7,0.9,1,2,1,3.4c0,1.3-0.4,2.5-1.1,3.6c-0.7,1.1-1.8,2-3.2,2.7
				c-1.4,0.7-3.4,1.1-5.9,1.1c-3.6,0-6.1-0.7-7.7-2c-1.5-1.3-2.3-3.1-2.3-5.2v-0.5l6.6-0.5c0,1.4,0.3,2.4,0.9,2.9
				c0.6,0.6,1.5,0.9,2.6,0.9c1.1,0,2-0.2,2.5-0.7s0.9-1,0.9-1.6c0-0.4-0.2-0.9-0.6-1.2c-0.4-0.4-1.3-0.8-2.7-1.3
				c-3.3-1.2-5.5-2.2-6.3-3.2c-0.9-1-1.3-2.2-1.3-3.6c0-1.3,0.4-2.4,1.1-3.5c0.7-1,1.8-1.9,3.2-2.4c1.4-0.6,3-0.9,5-0.9
				C377,96.2,380.3,98.3,380.7,102.7L380.7,102.7z M416.4,96.5l-1.2,5.4h-7.4l-3.7,16.7h-7l3.7-16.7h-7l1.2-5.4H416.4z M437.6,96.5
				l-4.9,22.1h-7.1l4.8-22.1H437.6L437.6,96.5z M472.6,103.8l-6.4,0.7v-0.1c0-1.1-0.3-1.9-1-2.4c-0.7-0.5-1.4-0.8-2.2-0.8
				c-1,0-2,0.4-3,1.1c-1,0.7-1.8,1.9-2.4,3.4c-0.6,1.5-0.9,3-0.9,4.4c0,1.1,0.3,2,0.9,2.8c0.6,0.7,1.5,1.1,2.6,1.1
				c1.1,0,2-0.3,2.7-1c0.7-0.7,1.4-1.7,2-3l6.5,1c-0.7,2.3-2,4.2-4,5.8c-2,1.5-4.5,2.3-7.6,2.3c-3.3,0-5.8-0.9-7.5-2.6
				c-1.7-1.7-2.6-4-2.6-6.8c0-2.2,0.5-4.3,1.5-6.5c1-2.2,2.5-3.9,4.5-5.1c2-1.2,4.3-1.9,7.1-1.9c2.9,0,5.1,0.7,6.7,2.1
				C471.3,99.7,472.3,101.5,472.6,103.8L472.6,103.8z M506.1,102.7l-6.5,0.3c-0.2-1.9-1.2-2.9-3.3-2.9c-0.9,0-1.5,0.2-1.9,0.5
				c-0.5,0.4-0.7,0.8-0.7,1.2c0,0.4,0.2,0.7,0.6,1c0.4,0.3,1.2,0.7,2.6,1.2c1.7,0.6,3.1,1.2,4.2,1.8c1.1,0.6,2,1.3,2.6,2.2
				c0.7,0.9,1,2,1,3.4c0,1.3-0.4,2.5-1.1,3.6c-0.7,1.1-1.8,2-3.2,2.7c-1.4,0.7-3.3,1.1-5.9,1.1c-3.6,0-6.1-0.7-7.7-2
				c-1.5-1.3-2.3-3.1-2.3-5.2v-0.5l6.6-0.5c0,1.4,0.3,2.4,0.9,2.9c0.6,0.6,1.5,0.9,2.6,0.9c1.1,0,2-0.2,2.5-0.7s0.9-1,0.9-1.6
				c0-0.4-0.2-0.9-0.6-1.2c-0.4-0.4-1.3-0.8-2.7-1.3c-3.3-1.2-5.4-2.2-6.3-3.2c-0.9-1-1.3-2.2-1.3-3.6c0-1.3,0.4-2.4,1.1-3.5
				c0.7-1,1.8-1.9,3.2-2.4c1.4-0.6,3-0.9,5-0.9C502.4,96.2,505.7,98.3,506.1,102.7L506.1,102.7z M553.6,96.5h10.3
				c2,0,3.4,0.2,4.4,0.7c1,0.5,1.7,1.1,2.3,2c0.5,0.9,0.8,2,0.8,3.2c0,1.7-0.5,3.1-1.4,4.4c-0.9,1.3-2.1,2.2-3.5,2.8
				c-1.4,0.6-3.3,0.8-5.8,0.8h-3.1l-1.8,8.2h-7.1L553.6,96.5L553.6,96.5z M558.5,106.1h2.4c1.1,0,2-0.3,2.7-0.9
				c0.7-0.6,1.1-1.4,1.1-2.3c0-1.3-0.7-2-2.2-2h-2.7L558.5,106.1L558.5,106.1z M587.1,96.5H600c2.2,0,3.9,0.6,4.9,1.7
				c1,1.1,1.5,2.5,1.5,4.1c0,1.7-0.5,3.2-1.6,4.5s-2.8,2.1-5.3,2.5c1.4,1.1,3.1,4.2,5.1,9.3h-7.4c-0.6-1.6-1.3-3.3-2.2-5.3
				c-0.9-1.9-1.5-3-1.9-3.3c-0.4-0.3-0.9-0.5-1.5-0.5h-0.4l-1.9,9h-7L587.1,96.5L587.1,96.5z M592.1,105.5h1.3
				c2.2,0,3.7-0.1,4.3-0.3c0.7-0.2,1.1-0.5,1.5-1c0.3-0.5,0.5-0.9,0.5-1.4c0-0.6-0.2-1-0.6-1.3c-0.4-0.3-1.2-0.5-2.5-0.5h-3.6
				L592.1,105.5L592.1,105.5z M629.8,96.5l-4.8,22.1h-7.1l4.8-22.1H629.8z M667.7,96.5L655,118.6h-7.6l-4.3-22.1h7l2,15.7h0.1
				l8-15.7H667.7z M696,118.6h-6.9l-0.3-3.6h-7.4l-1.8,3.6h-7.5l12.8-22.1h7.5L696,118.6z M688.4,110.3l-0.7-8.1h-0.1l-3.9,8.1
				H688.4z M730.7,96.5l-1.2,5.4h-7.4l-3.7,16.7h-7l3.7-16.7h-7l1.2-5.4H730.7L730.7,96.5z M762.9,96.5l-1,4.7h-11.5l-0.8,3.5h11.1
				l-1,4.5h-11.1l-0.9,4.3h12.5l-1.1,5h-19.4l4.8-22.1C744.3,96.5,762.9,96.5,762.9,96.5z M824.1,113.2l-1.2,5.4h-18.3l4.8-22.1h7.1
				l-3.7,16.7H824.1L824.1,113.2z M848.7,96.5l-4.9,22.1h-7.1l4.8-22.1H848.7L848.7,96.5z M889.6,96.5l-4.9,22.1h-5.8l4.2-16.9H883
				l-8.4,16.9h-5.2l-1-16.9h-0.1l-3.2,16.9h-5.8l4.8-22.1h8.6l0.8,14h0.1l7.2-14H889.6L889.6,96.5z M912.3,96.5l-4.8,22.1h-7.1
				l4.8-22.1H912.3z M947.7,96.5l-1.2,5.4h-7.4l-3.7,16.7h-7l3.7-16.7h-7.1l1.2-5.4H947.7L947.7,96.5z M979.9,96.5l-1,4.7h-11.5
				l-0.8,3.5h11.1l-1,4.5h-11.1l-1,4.3h12.5l-1.1,5h-19.5l4.8-22.1C961.3,96.5,979.9,96.5,979.9,96.5z M994.8,96.5h9.3
				c3.3,0,5.7,0.8,7.2,2.6c1.5,1.7,2.3,3.9,2.3,6.7c0,2.6-0.6,5.1-2,7.3c-1.3,2.3-2.8,3.7-4.6,4.5c-1.8,0.7-3.5,1.1-5.1,1.1h-11.9
				L994.8,96.5L994.8,96.5z M998.2,113.7h2.9c1.9,0,3.3-1,4.3-2.9c0.9-1.9,1.4-3.9,1.4-5.8c0-1.1-0.3-2-0.8-2.7
				c-0.5-0.7-1.5-1-2.9-1h-2.2L998.2,113.7z"/>
		</g>
		<path class="st1" d="M111.6,102.7H65.8l0.1-23.9C71.6,91,89.4,100.3,111.6,102.7z"/>
		<path class="st1" d="M179.8,78.6v24.1H134C156.3,100.3,174.1,90.9,179.8,78.6z"/>
		<path class="st1" d="M66.2,8.4l57.3,27.6l56.3-26.6V62c-6.6-14.2-29.6-24.7-57-24.7c-27.2,0-50,10.3-56.8,24.3
			C66,61.6,66.2,8.4,66.2,8.4z"/>
		<path class="st1" d="M123.1,39.4c27.5,0,50.3,11.4,53.9,26.1h-6.7c-3.4-13.4-23.3-23.7-47.3-23.7c-26.4,0-47.8,12.4-47.8,27.8
			s21.4,27.8,47.8,27.8c24.3,0,44.4-10.6,47.4-24.2h6.7c-3.2,15-26.2,26.7-54.1,26.7c-30,0-54.4-13.6-54.4-30.3S93,39.4,123.1,39.4
			L123.1,39.4z"/>
		<polygon class="st1" points="69.2,68.7 176.5,68.7 176.5,71.1 69.2,71.1 		"/>
		<path class="st1" d="M148.7,29.8c4,2.5,6.4,5.7,6.4,9.1c0,8.4-14.4,15.2-32.3,15.2S90.6,47.4,90.6,39c0-3.4,2.4-6.6,6.4-9.1
			c-3.4,2.3-5.4,5.1-5.4,8c0,7.9,14,14.3,31.2,14.3c17.2,0,31.2-6.4,31.2-14.3C154.1,34.9,152.1,32.1,148.7,29.8z"/>
		<path class="st1" d="M94.2,93.7c5.3-4.3,16.2-7.3,28.8-7.3c12.4,0,23.2,2.9,28.6,7.2l-1.8,0.7c-5.5-3.7-15.4-6.1-26.8-6.1
			c-11.5,0-21.5,2.5-26.9,6.2C96,94.4,94.2,93.7,94.2,93.7z"/>
		<polygon class="st1" points="121.8,41.8 124,41.8 124,97.4 121.8,97.4 		"/>
		<path class="st1" d="M122.9,40.6c11.7,0,21.2,12.7,21.2,28.4s-9.5,28.4-21.2,28.4S101.7,84.7,101.7,69S111.2,40.6,122.9,40.6z
			 M122.9,43.1c10.6,0,19.2,11.7,19.2,26.2s-8.6,26.1-19.2,26.1c-10.6,0-19.2-11.7-19.2-26.1S112.3,43.1,122.9,43.1z"/>
		<path class="st2" d="M67.5,116.1V109h1.7l2.1,5c0.2,0.5,0.3,0.8,0.4,1c0.1-0.3,0.2-0.6,0.5-1.1l2.1-4.9h1.6v7.1h-1.1v-5.9
			l-2.5,5.9h-1l-2.5-6v6C68.6,116.1,67.5,116.1,67.5,116.1z M78.3,116.1l3.4-7.1h1.2l3.6,7.1h-1.3l-1-2.2h-3.7l-1,2.2H78.3z
			 M80.8,113.2h3l-0.9-2c-0.3-0.6-0.5-1.1-0.6-1.5c-0.1,0.5-0.3,0.9-0.5,1.4C81.7,111.1,80.8,113.2,80.8,113.2z M88.9,116.1V109h3.9
			c0.8,0,1.4,0.1,1.8,0.2c0.4,0.1,0.7,0.3,1,0.7s0.4,0.7,0.4,1.1c0,0.5-0.2,0.9-0.6,1.3c-0.4,0.3-1,0.6-1.8,0.6
			c0.3,0.1,0.5,0.2,0.7,0.4c0.3,0.3,0.7,0.6,1,1l1.5,1.9h-1.5l-1.2-1.5c-0.3-0.4-0.6-0.7-0.8-1c-0.2-0.2-0.4-0.4-0.6-0.5
			c-0.2-0.1-0.3-0.2-0.5-0.2c-0.1,0-0.4,0-0.6,0h-1.3v3.2C90.1,116.1,88.9,116.1,88.9,116.1z M90.1,112.1h2.5c0.5,0,1,0,1.2-0.1
			s0.5-0.2,0.7-0.4c0.2-0.2,0.2-0.4,0.2-0.6c0-0.3-0.2-0.6-0.4-0.8c-0.3-0.2-0.8-0.3-1.4-0.3h-2.8V112.1z M105,109h1.2v4.1
			c0,0.7-0.1,1.3-0.3,1.7c-0.2,0.4-0.6,0.8-1.1,1c-0.5,0.3-1.2,0.4-2,0.4c-0.8,0-1.5-0.1-2-0.3c-0.5-0.2-0.9-0.6-1.1-1
			c-0.2-0.4-0.3-1-0.3-1.8V109h1.1v4.1c0,0.6,0.1,1.1,0.2,1.4c0.1,0.3,0.4,0.5,0.7,0.7c0.3,0.2,0.8,0.2,1.2,0.2
			c0.8,0,1.5-0.2,1.8-0.5c0.4-0.3,0.5-0.9,0.5-1.8C105,113.1,105,109,105,109z M111.8,116.1v-6.3H109V109h6.9v0.8H113v6.3H111.8z
			 M118.8,116.1V109h1.2v7.1H118.8z M71.6,124.4v-0.8l3.7,0v2.6c-0.6,0.4-1.2,0.6-1.8,0.8c-0.6,0.2-1.2,0.3-1.9,0.3
			c-0.8,0-1.6-0.2-2.3-0.4c-0.7-0.3-1.2-0.7-1.6-1.3c-0.4-0.6-0.5-1.2-0.5-1.9c0-0.7,0.2-1.3,0.5-1.9c0.4-0.6,0.9-1,1.5-1.3
			c0.7-0.3,1.4-0.4,2.3-0.4c0.6,0,1.2,0.1,1.7,0.2c0.5,0.2,0.9,0.4,1.2,0.7c0.3,0.3,0.5,0.7,0.7,1.2l-1,0.2
			c-0.1-0.4-0.3-0.7-0.5-0.9c-0.2-0.2-0.5-0.4-0.8-0.5c-0.4-0.1-0.8-0.2-1.2-0.2c-0.5,0-1,0.1-1.4,0.2c-0.4,0.1-0.7,0.3-0.9,0.5
			c-0.2,0.2-0.4,0.5-0.6,0.7c-0.2,0.4-0.3,0.9-0.3,1.4c0,0.6,0.1,1.2,0.4,1.6c0.3,0.4,0.7,0.8,1.2,1s1,0.3,1.6,0.3
			c0.5,0,1-0.1,1.5-0.2c0.5-0.2,0.8-0.3,1.1-0.5v-1.3C74.1,124.4,71.6,124.4,71.6,124.4z M79.5,127.2v-7.1h3.9c0.8,0,1.4,0,1.8,0.2
			s0.7,0.4,1,0.7c0.2,0.3,0.4,0.7,0.4,1.1c0,0.5-0.2,0.9-0.6,1.3c-0.4,0.4-1,0.6-1.9,0.7c0.3,0.1,0.6,0.2,0.7,0.4
			c0.3,0.2,0.6,0.6,1,1l1.5,1.9h-1.4l-1.2-1.5c-0.3-0.4-0.6-0.8-0.8-1c-0.2-0.2-0.4-0.4-0.6-0.5c-0.2-0.1-0.3-0.2-0.5-0.2
			c-0.1,0-0.3,0-0.6,0h-1.3v3.2C80.6,127.2,79.5,127.2,79.5,127.2z M80.6,123.2h2.5c0.5,0,0.9,0,1.2-0.1c0.3-0.1,0.5-0.2,0.7-0.4
			c0.2-0.2,0.2-0.4,0.2-0.6c0-0.3-0.2-0.6-0.5-0.8c-0.3-0.2-0.8-0.3-1.4-0.3h-2.8V123.2z M90.4,123.8c0-1.2,0.4-2.1,1.2-2.8
			c0.8-0.7,1.8-1,3-1c0.8,0,1.5,0.2,2.2,0.5c0.6,0.3,1.1,0.8,1.5,1.3c0.4,0.6,0.5,1.2,0.5,1.9c0,0.7-0.2,1.4-0.5,1.9
			c-0.4,0.6-0.9,1-1.5,1.3c-0.7,0.3-1.4,0.4-2.1,0.4c-0.8,0-1.6-0.2-2.2-0.5c-0.7-0.3-1.2-0.8-1.5-1.3
			C90.5,125,90.4,124.4,90.4,123.8z M91.5,123.8c0,0.9,0.3,1.5,0.8,2c0.6,0.5,1.3,0.7,2.1,0.7c0.9,0,1.6-0.2,2.2-0.8
			c0.6-0.5,0.8-1.2,0.8-2.1c0-0.6-0.1-1.1-0.4-1.5c-0.2-0.4-0.6-0.8-1.1-1c-0.5-0.2-1-0.4-1.6-0.4c-0.8,0-1.5,0.2-2.1,0.7
			C91.8,121.9,91.5,122.7,91.5,123.8z M108.3,120.1h1.2v4.1c0,0.7-0.1,1.3-0.3,1.7c-0.2,0.4-0.6,0.8-1.1,1c-0.5,0.3-1.2,0.4-2,0.4
			c-0.8,0-1.5-0.1-2-0.3c-0.5-0.2-0.9-0.6-1.1-1c-0.2-0.4-0.3-1-0.3-1.8v-4.1h1.2v4.1c0,0.6,0.1,1.1,0.2,1.4
			c0.1,0.3,0.4,0.5,0.7,0.7c0.4,0.2,0.8,0.2,1.3,0.2c0.8,0,1.4-0.2,1.8-0.5c0.4-0.3,0.5-0.9,0.5-1.8
			C108.3,124.2,108.3,120.1,108.3,120.1z M113.9,127.2v-7.1h3.3c0.6,0,1,0,1.3,0.1c0.4,0,0.8,0.2,1.1,0.3c0.3,0.2,0.5,0.4,0.7,0.7
			c0.2,0.3,0.3,0.6,0.3,1c0,0.6-0.2,1.1-0.7,1.5c-0.5,0.4-1.3,0.6-2.6,0.6H115v2.9C115,127.2,113.9,127.2,113.9,127.2z M115,123.5
			h2.2c0.8,0,1.3-0.1,1.6-0.4c0.3-0.2,0.5-0.5,0.5-1c0-0.3-0.1-0.5-0.3-0.8c-0.2-0.2-0.4-0.4-0.7-0.4c-0.2,0-0.5-0.1-1.1-0.1H115
			C115,120.9,115,123.5,115,123.5z"/>
		<path class="st3" d="M135.2,60.9l0.4,0.1l-0.8,0.2h0l0,0l0,0c-17.4-0.3-28.4,4.9-27.9,12.2c-0.5-7.2,10.5-12.5,27.8-12.2h0.5
			C98.7,65,102.3,79,133,91.2c31.2,12.2,42.7,21.1,46.2,28.6l0.2,2.8l-0.2-0.3v3h-34.4H137c0-6.7-9.7-16-29.1-27.9
			c-45-29.2-5.6-46,27.1-36.6L135.2,60.9L135.2,60.9L135.2,60.9L135.2,60.9C135.2,60.9,135.2,60.9,135.2,60.9z"/>
		<path class="st1" d="M135.3,60.9c-32.7-9.6-72.5,7.1-27.4,36.5c19.4,12,29,21.3,29.1,27.9h7.8c-2.1-8.6-12.1-18-34.8-28.6
			C76.4,73.4,93.1,53.4,135.3,60.9L135.3,60.9z"/>
		<path class="st1" d="M135.2,61.3C98.7,65,102.3,79,133,91.2c18.5,7.3,30.1,13.3,37.2,18.6c4.8,3.6,7.6,6.9,9,9.9l0.2,2.8
			c-7-10.7-21.2-21-48.1-30.7C92.9,77.8,104,60.5,135.2,61.3L135.2,61.3z"/>
		<path class="st1" d="M114.2,61.7l0.4,1.2c-0.6,0.2-1.2,0.4-1.8,0.6l-0.8-1.2C112.6,62.1,113.4,61.9,114.2,61.7z M111.2,63.9
			c-0.6,0.2-1.1,0.4-1.6,0.6l-0.9-1.3c0.5-0.2,1.1-0.4,1.7-0.5C110.4,62.7,111.2,63.9,111.2,63.9z M108.2,65.1
			c-0.9,0.4-1.6,0.8-2.4,1.2l-1.1-1.5c0.8-0.4,1.6-0.7,2.5-1C107.2,63.8,108.2,65.1,108.2,65.1z M104.2,67.3c-0.8,0.6-1.5,1.1-2,1.7
			l-1.4-1.9c0.6-0.5,1.4-1,2.2-1.4L104.2,67.3z M100.8,71.5c-0.3,0.8-0.3,1.7-0.1,2.5l-3,0.5c-0.5-2.1,0-4,1.3-5.6L100.8,71.5z
			 M102.1,77.2c1.1,1.6,2.9,3.3,5.2,5.1l-2.6,1.4c-2.6-2.2-4.4-4.1-5.6-6C99.1,77.8,102.1,77.2,102.1,77.2z M111.2,85
			c2.3,1.4,4.9,2.9,7.8,4.4l-3.4,1.9c-2.8-1.6-5.1-3.2-7.2-4.7L111.2,85z M123.7,91.6c3.6,1.7,7.2,3.6,10.7,5.6l-4.4,2.4
			c-3.1-1.8-6.4-3.8-10.1-5.9L123.7,91.6z M139.4,100.3c4,2.5,7.9,5.3,11.3,8.1l-4.2,2.6c-3.2-2.6-7-5.2-11.6-8.2
			C135,102.7,139.4,100.3,139.4,100.3z M156.2,113.2c4.2,4,7.4,8.2,9.3,12.2h-6.2c-1.9-3.3-4.1-6.4-7.3-9.5L156.2,113.2z"/>
		<polygon class="st4" points="247.5,3.3 200.4,122.1 184.5,122.1 231.6,3.3 		"/>
		<polygon class="st5" points="237.1,3.3 241.3,5 238.3,12.6 234.1,10.9 237.1,3.3 		"/>
		<polygon class="st5" points="233.1,13.3 237.4,15 234.4,22.6 230.1,20.9 		"/>
		<polygon class="st5" points="229.2,23.2 233.5,24.9 230.4,32.5 226.2,30.8 		"/>
		<polygon class="st5" points="225.3,33.2 229.5,34.9 226.5,42.5 222.2,40.8 		"/>
		<polygon class="st5" points="221.3,43.2 225.6,44.8 222.6,52.4 218.3,50.7 		"/>
		<polygon class="st5" points="217.4,53.1 221.6,54.8 218.6,62.4 214.4,60.7 		"/>
		<polygon class="st5" points="213.4,63.1 217.7,64.7 214.7,72.3 210.4,70.6 		"/>
		<polygon class="st5" points="209.5,73 213.7,74.7 210.7,82.3 206.5,80.6 		"/>
		<polygon class="st5" points="205.5,83 209.8,84.7 206.8,92.3 202.5,90.6 		"/>
		<polygon class="st5" points="201.6,92.9 205.8,94.6 202.8,102.2 198.6,100.5 		"/>
		<polygon class="st5" points="197.6,102.9 201.9,104.6 198.9,112.2 194.6,110.5 		"/>
		<polygon class="st5" points="193.7,112.8 197.9,114.5 194.9,122.1 194.9,122.1 190.7,120.4 		"/>
		<polygon class="st4" points="66.2,3.3 19.1,122.1 3.1,122.1 50.2,3.3 		"/>
		<polygon class="st5" points="55.8,3.3 60,5 57,12.6 52.7,10.9 55.7,3.3 		"/>
		<polygon class="st5" points="51.8,13.3 56,15 53,22.6 48.8,20.9 		"/>
		<polygon class="st5" points="47.8,23.2 52.1,24.9 49.1,32.5 44.8,30.8 		"/>
		<polygon class="st5" points="43.9,33.2 48.1,34.9 45.1,42.5 40.9,40.8 		"/>
		<polygon class="st5" points="39.9,43.2 44.2,44.8 41.2,52.4 36.9,50.7 		"/>
		<polygon class="st5" points="36,53.1 40.3,54.8 37.2,62.4 33,60.7 		"/>
		<polygon class="st5" points="32.1,63.1 36.3,64.7 33.3,72.3 29,70.6 		"/>
		<polygon class="st5" points="28.1,73 32.4,74.7 29.3,82.3 25.1,80.6 		"/>
		<polygon class="st5" points="24.2,83 28.4,84.7 25.4,92.3 21.1,90.6 		"/>
		<polygon class="st5" points="20.2,92.9 24.5,94.6 21.5,102.2 17.2,100.5 		"/>
		<polygon class="st5" points="16.3,102.9 20.5,104.6 17.5,112.2 13.3,110.5 		"/>
		<polygon class="st5" points="12.3,112.8 16.6,114.5 13.6,122.1 13.5,122.1 9.3,120.4 		"/>
	</g>
</g>
</svg>
